<?xml version="1.0" encoding="utf-8"?>
<!-- Generator: Adobe Illustrator 23.0.2, SVG Export Plug-In . SVG Version: 6.00 Build 0)  -->
<svg version="1.1" xmlns="http://www.w3.org/2000/svg" xmlns:xlink="http://www.w3.org/1999/xlink" x="0px" y="0px"
	 viewBox="0 0 1500 750" style="enable-background:new 0 0 1500 750;" xml:space="preserve">
<style type="text/css">
	.st0{display:none;}
	.st1{display:inline;fill:#191820;}
	.st2{display:inline;}
	.st3{fill:#FFFFFF;}
	.st4{fill:url(#SVGID_1_);}
	.st5{fill:url(#SVGID_2_);}
	.st6{fill:url(#SVGID_3_);}
	.st7{fill:#E6E6E6;}
	.st8{fill:#B3B3B3;}
	.st9{display:none;fill:none;stroke:#333333;stroke-width:3.4721;stroke-miterlimit:10;}
	.st10{fill:url(#SVGID_4_);}
	.st11{fill-opacity:0.2;}
	.st12{fill-opacity:0.21;}
	.st13{fill:url(#SVGID_5_);}
	.st14{fill:#0B0015;fill-opacity:0.3;}
	.st15{fill:url(#SVGID_6_);}
	.st16{opacity:0.2;}
	.st17{fill:#0B0015;fill-opacity:0.15;}
	.st18{fill:#F9F9F9;}
	.st19{fill:url(#SVGID_7_);}
	.st20{opacity:0.2;fill:#0B0015;}
	.st21{fill:url(#SVGID_8_);}
	.st22{fill:#E5E5E5;}
	.st23{fill:#191820;}
	.st24{fill:url(#SVGID_9_);}
	.st25{fill:url(#SVGID_10_);}
	.st26{fill:url(#SVGID_11_);}
	.st27{fill:url(#SVGID_12_);}
	.st28{fill:url(#SVGID_13_);}
	.st29{fill:url(#SVGID_14_);}
	.st30{fill:url(#SVGID_15_);}
	.st31{fill:url(#SVGID_16_);}
	.st32{font-family:'Righteous-Regular';}
	.st33{font-size:75.5363px;}
	.st34{display:inline;fill:url(#SVGID_17_);}
	.st35{display:inline;fill-opacity:0.2;}
	.st36{display:inline;fill-opacity:0.21;}
	.st37{display:inline;fill:url(#SVGID_18_);}
	.st38{display:inline;fill:#0B0015;fill-opacity:0.3;}
	.st39{display:inline;fill:url(#SVGID_19_);}
	.st40{display:inline;opacity:0.2;}
	.st41{display:inline;fill:#0B0015;fill-opacity:0.15;}
	.st42{display:inline;fill:#F9F9F9;}
	.st43{display:inline;fill:url(#SVGID_20_);}
	.st44{display:inline;opacity:0.2;fill:#0B0015;}
	.st45{display:inline;fill:url(#SVGID_21_);}
	.st46{fill:url(#SVGID_22_);}
	.st47{fill:#662D91;}
	.st48{display:inline;fill:#FFFFFF;}
	.st49{font-size:256.2153px;}
	.st50{fill:url(#SVGID_23_);}
	.st51{fill:url(#SVGID_24_);}
	.st52{fill:none;}
	.st53{font-size:95.0898px;}
	.st54{opacity:0.15;}
	.st55{fill:#EB608D;}
	.st56{fill:#EB798D;}
	.st57{display:none;fill:#FFB464;}
	.st58{fill:#9B024E;}
	.st59{fill:#B20453;}
	.st60{fill:#E80054;}
	.st61{fill:#FF7186;}
	.st62{fill:#CC0053;}
	.st63{display:inline;fill:#FCC695;}
	.st64{display:inline;fill:url(#SVGID_25_);}
	.st65{display:inline;fill:url(#SVGID_26_);}
	.st66{fill:#501E91;}
	.st67{display:inline;fill:none;}
	.st68{display:inline;fill:#E5E5E5;}
	.st69{display:inline;opacity:0.15;}
	.st70{display:inline;fill:#EB608D;}
	.st71{display:inline;fill:#EB798D;}
	.st72{fill:#8BCAFF;}
	.st73{fill:#60B9FE;}
	.st74{display:inline;fill:#D8D8D8;}
	.st75{display:inline;fill:url(#SVGID_27_);}
	.st76{display:inline;fill:url(#SVGID_28_);}
	.st77{display:inline;fill:url(#SVGID_29_);}
	.st78{fill:url(#SVGID_30_);}
	.st79{fill:url(#SVGID_31_);}
	.st80{fill:#C2C2C2;}
	.st81{fill:url(#SVGID_32_);}
	.st82{fill:url(#SVGID_33_);}
	.st83{fill:url(#SVGID_34_);}
	.st84{fill:#383838;}
	.st85{font-size:199.016px;}
	.st86{display:inline;fill:#333333;}
	.st87{fill:#B05AF7;}
	.st88{fill:url(#SVGID_35_);}
	.st89{fill:url(#SVGID_36_);}
	.st90{fill:url(#SVGID_37_);}
	.st91{fill:url(#SVGID_38_);}
	.st92{opacity:0.31;}
	.st93{display:inline;fill:#F2F2F2;}
	.st94{display:inline;opacity:0.38;}
	.st95{fill:#F2F2F2;}
	.st96{display:inline;fill:url(#SVGID_39_);}
	.st97{display:inline;fill:#FF4F4A;}
</style>
<g id="Kael_-_CC" class="st0">
	<path id="card_template" class="st1" d="M1434.3,741.5H65.3c-6.6,0-12-5.4-12-12V20c0-6.6,5.4-12,12-12h1369.1c6.6,0,12,5.4,12,12
		v709.5C1446.3,736.1,1440.9,741.5,1434.3,741.5z"/>
	<g class="st2">
		<path class="st3" d="M1175.2,653.3c0,2.7-0.5,5.3-1.6,7.6c-1,2.4-2.4,4.5-4.2,6.2s-3.9,3.2-6.2,4.2c-2.4,1-4.9,1.6-7.6,1.6h-32.8
			v-65.6h32.8c2.7,0,5.3,0.5,7.6,1.6c2.4,1,4.5,2.4,6.2,4.2s3.2,3.9,4.2,6.2c1,2.4,1.6,4.9,1.6,7.6c0,1.2-0.2,2.5-0.5,3.8
			c-0.3,1.3-0.8,2.5-1.4,3.7s-1.3,2.3-2.2,3.2c-0.9,1-1.8,1.8-2.8,2.4c1.1,0.6,2,1.4,2.9,2.4c0.9,1,1.6,2.1,2.2,3.3s1.1,2.4,1.4,3.7
			C1175,650.8,1175.2,652,1175.2,653.3z M1135.8,633.6h19.7c0.9,0,1.8-0.2,2.6-0.5c0.8-0.3,1.5-0.8,2.1-1.4s1.1-1.3,1.4-2.1
			c0.3-0.8,0.5-1.7,0.5-2.6s-0.2-1.8-0.5-2.6c-0.3-0.8-0.8-1.5-1.4-2.1s-1.3-1.1-2.1-1.4c-0.8-0.3-1.6-0.5-2.6-0.5h-19.7V633.6z
			 M1135.8,659.8h19.7c0.9,0,1.8-0.2,2.6-0.5s1.5-0.8,2.1-1.4s1.1-1.3,1.4-2.1c0.3-0.8,0.5-1.6,0.5-2.6s-0.2-1.8-0.5-2.6
			c-0.3-0.8-0.8-1.5-1.4-2.1s-1.3-1.1-2.1-1.4c-0.8-0.3-1.6-0.5-2.6-0.5h-19.7V659.8z"/>
		<path class="st3" d="M1236.9,672.9h-13.1v-13.1h-26.3v13.1h-13.1v-39.3c0-3.6,0.7-7,2.1-10.2c1.4-3.2,3.2-6,5.6-8.3
			c2.4-2.4,5.1-4.3,8.3-5.6c3.2-1.4,6.6-2.1,10.2-2.1s7,0.7,10.2,2.1c3.2,1.4,6,3.2,8.3,5.6s4.3,5.2,5.6,8.3
			c1.4,3.2,2.1,6.6,2.1,10.2V672.9z M1223.7,646.7v-13.1c0-1.8-0.3-3.5-1-5.1c-0.7-1.6-1.6-3-2.8-4.2s-2.6-2.1-4.2-2.8
			c-1.6-0.7-3.3-1-5.1-1s-3.5,0.3-5.1,1c-1.6,0.7-3,1.6-4.2,2.8s-2.1,2.6-2.8,4.2c-0.7,1.6-1,3.3-1,5.1v13.1H1223.7z"/>
		<path class="st3" d="M1300.7,672.9h-14l-25.3-43.2v43.2h-13.1v-65.6h14l25.3,43.2v-43.2h13.1V672.9z"/>
		<path class="st3" d="M1326,672.9h-13.1v-65.6h13.1v32.8l24.4-32.8h14.9l-20.7,27.7l20.7,37.9h-14.9l-14.4-26.5l-10,13.4V672.9z"/>
	</g>
	<g id="wifi" class="st2">
		<linearGradient id="SVGID_1_" gradientUnits="userSpaceOnUse" x1="1031.2054" y1="174.6119" x2="1057.3462" y2="174.6119">
			<stop  offset="0.257" style="stop-color:#42007F"/>
			<stop  offset="0.3421" style="stop-color:#4B0780"/>
			<stop  offset="0.4836" style="stop-color:#651982"/>
			<stop  offset="0.6641" style="stop-color:#8E3785"/>
			<stop  offset="0.8744" style="stop-color:#C75F8A"/>
			<stop  offset="0.9944" style="stop-color:#EB798D"/>
		</linearGradient>
		<path class="st4" d="M1052.5,222c-0.9-0.5-1.9-0.8-2.6-1.5c-7.1-7.2-12.2-15.6-15.4-25.2c-2.6-7.7-3.6-15.6-3.2-23.7
			c0.6-12.8,4.6-24.5,12.2-34.8c2.1-2.9,4.6-5.6,7.1-8.3c1.6-1.8,4.1-1.8,5.7-0.2c1.6,1.6,1.5,4-0.2,5.7
			c-7.6,7.6-12.9,16.7-15.3,27.2c-3.6,15.1-1.4,29.5,6.4,42.9c2.3,4,5.1,7.5,8.3,10.8c1.2,1.3,1.6,3,0.8,4.5
			c-0.6,1.4-2.1,2.3-3.6,2.3C1052.6,221.9,1052.6,221.9,1052.5,222z"/>
		<linearGradient id="SVGID_2_" gradientUnits="userSpaceOnUse" x1="1049.2642" y1="174.6282" x2="1070.0293" y2="174.6282">
			<stop  offset="0.257" style="stop-color:#42007F"/>
			<stop  offset="0.3421" style="stop-color:#4B0780"/>
			<stop  offset="0.4836" style="stop-color:#651982"/>
			<stop  offset="0.6641" style="stop-color:#8E3785"/>
			<stop  offset="0.8744" style="stop-color:#C75F8A"/>
			<stop  offset="0.9944" style="stop-color:#EB798D"/>
		</linearGradient>
		<path class="st5" d="M1049.3,173.7c0.1-11.4,4.6-22.8,13.9-32.2c1.7-1.7,4.1-1.8,5.7-0.2c1.6,1.6,1.5,4-0.2,5.7
			c-5.7,5.7-9.5,12.5-10.9,20.5c-2.3,13.1,1.1,24.7,10.1,34.5c1.1,1.2,1.8,2.5,1.5,4.1c-0.3,1.5-1.3,2.5-2.8,2.9
			c-1.4,0.4-2.8,0-3.8-1c-4.9-4.9-8.5-10.6-10.8-17.1C1050.3,185.9,1049.4,180.8,1049.3,173.7z"/>
		<linearGradient id="SVGID_3_" gradientUnits="userSpaceOnUse" x1="1067.0074" y1="174.7074" x2="1082.4281" y2="174.7074">
			<stop  offset="0.257" style="stop-color:#42007F"/>
			<stop  offset="0.3421" style="stop-color:#4B0780"/>
			<stop  offset="0.4836" style="stop-color:#651982"/>
			<stop  offset="0.6641" style="stop-color:#8E3785"/>
			<stop  offset="0.8744" style="stop-color:#C75F8A"/>
			<stop  offset="0.9944" style="stop-color:#EB798D"/>
		</linearGradient>
		<path class="st6" d="M1067,175.7c0.3-9.1,3.1-15.9,8.7-21.5c1.3-1.4,3.1-1.6,4.7-0.8c1.5,0.8,2.5,2.5,2,4.2
			c-0.3,0.9-0.9,1.8-1.5,2.5c-3.1,3.3-5,7.1-5.6,11.5c-1,6.8,0.9,12.8,5.6,17.9c1.4,1.6,1.8,3.4,0.8,5c-1.4,2.3-4.3,2.6-6.2,0.7
			c-3.6-3.7-6.2-8.1-7.3-13.1C1067.4,179.6,1067.2,177.1,1067,175.7z"/>
	</g>
	<g id="chip" class="st2">
		<path class="st7" d="M1356,244.1h-233.3c-6.6,0-12-5.4-12-12V120.6c0-6.6,5.4-12,12-12H1356c6.6,0,12,5.4,12,12v111.5
			C1368,238.7,1362.6,244.1,1356,244.1z"/>
		<rect x="1162.9" y="108.6" class="st8" width="7.7" height="135.5"/>
		<rect x="1302.9" y="108.6" class="st8" width="7.7" height="135.5"/>
		
			<rect x="1134.9" y="132.8" transform="matrix(6.123234e-17 -1 1 6.123234e-17 977.9507 1299.5487)" class="st8" width="7.7" height="56"/>
		
			<rect x="1134.9" y="174.1" transform="matrix(6.123234e-17 -1 1 6.123234e-17 936.6429 1340.8564)" class="st8" width="7.7" height="56"/>
		
			<rect x="1335.4" y="126.3" transform="matrix(6.123234e-17 -1 1 6.123234e-17 1184.3062 1494.3694)" class="st8" width="7.9" height="57.4"/>
		
			<rect x="1335.4" y="168.7" transform="matrix(6.123234e-17 -1 1 6.123234e-17 1141.9656 1536.7098)" class="st8" width="7.9" height="57.4"/>
	</g>
	<g id="logotype" class="st2">
		<path class="st9" d="M1389,694.7H108.6c-6.6,0-12-5.4-12-12V76.4c0-6.6,5.4-12,12-12H1389c6.6,0,12,5.4,12,12v606.3
			C1401,689.3,1395.6,694.7,1389,694.7z"/>
		<linearGradient id="SVGID_4_" gradientUnits="userSpaceOnUse" x1="508.08" y1="500.6319" x2="966.5688" y2="500.6319">
			<stop  offset="0.257" style="stop-color:#42007F"/>
			<stop  offset="0.3421" style="stop-color:#4B0780"/>
			<stop  offset="0.4836" style="stop-color:#651982"/>
			<stop  offset="0.6641" style="stop-color:#8E3785"/>
			<stop  offset="0.8744" style="stop-color:#C75F8A"/>
			<stop  offset="0.9944" style="stop-color:#EB798D"/>
		</linearGradient>
		<path class="st10" d="M645.1,259.8l321.5,481.7h-274c0,0-82.7-123.9-184.5-276.5L645.1,259.8z"/>
		<polyline class="st11" points="553.8,414.5 651.4,268.2 966.6,740.6 		"/>
		<polygon class="st12" points="718.8,369.4 513.9,472.8 451.9,379.9 595.1,184 		"/>
		<linearGradient id="SVGID_5_" gradientUnits="userSpaceOnUse" x1="468.0822" y1="741.5041" x2="468.0822" y2="8">
			<stop  offset="0.257" style="stop-color:#42007F"/>
			<stop  offset="0.3421" style="stop-color:#4B0780"/>
			<stop  offset="0.4836" style="stop-color:#651982"/>
			<stop  offset="0.6641" style="stop-color:#8E3785"/>
			<stop  offset="0.8744" style="stop-color:#C75F8A"/>
			<stop  offset="0.9944" style="stop-color:#EB798D"/>
		</linearGradient>
		<polygon class="st13" points="343,741.5 103.6,741.5 593.1,8 832.6,8 		"/>
		<polygon class="st11" points="590.5,8 345.6,726.3 825,8 		"/>
		<polyline class="st14" points="345.6,726.3 229.8,548.5 590.5,8 345.6,726.3 		"/>
		
			<linearGradient id="SVGID_6_" gradientUnits="userSpaceOnUse" x1="54.1612" y1="192.5084" x2="54.1612" y2="-365.6137" gradientTransform="matrix(1 0 0 1 148.9229 456.3055)">
			<stop  offset="0.257" style="stop-color:#42007F"/>
			<stop  offset="0.3421" style="stop-color:#4B0780"/>
			<stop  offset="0.4836" style="stop-color:#651982"/>
			<stop  offset="0.6641" style="stop-color:#8E3785"/>
			<stop  offset="0.8744" style="stop-color:#C75F8A"/>
			<stop  offset="0.9944" style="stop-color:#EB798D"/>
		</linearGradient>
		<path class="st15" d="M295,373.5c0,0-37-56.9-77.8-119.7c-1.2-1.9-2.4-3.8-3.7-5.6C164.4,172.5,111.2,90.7,111.2,90.7v558.1
			L295,373.5z"/>
		<polygon class="st16" points="294.9,375.8 111.1,651.1 217.1,256.1 		"/>
		<polyline class="st17" points="295.2,375.8 197.2,222.7 197.2,520.3 295.2,375.8 		"/>
		<path class="st18" d="M111.1,8"/>
		<linearGradient id="SVGID_7_" gradientUnits="userSpaceOnUse" x1="203.3142" y1="288.6966" x2="203.3142" y2="8">
			<stop  offset="0.257" style="stop-color:#42007F"/>
			<stop  offset="0.3421" style="stop-color:#4B0780"/>
			<stop  offset="0.4836" style="stop-color:#651982"/>
			<stop  offset="0.6641" style="stop-color:#8E3785"/>
			<stop  offset="0.8744" style="stop-color:#C75F8A"/>
			<stop  offset="0.9944" style="stop-color:#EB798D"/>
		</linearGradient>
		<polygon class="st19" points="295.2,8 295.2,288.7 111.4,8 		"/>
		<polyline class="st20" points="294.9,288.7 111.1,8 224.9,8 294.9,288.7 		"/>
		<polyline class="st20" points="295.2,289.9 295.2,149 203.3,149 295.2,289.3 		"/>
		<linearGradient id="SVGID_8_" gradientUnits="userSpaceOnUse" x1="590.5418" y1="8" x2="590.5418" y2="8">
			<stop  offset="0.257" style="stop-color:#42007F"/>
			<stop  offset="0.3421" style="stop-color:#4B0780"/>
			<stop  offset="0.4836" style="stop-color:#651982"/>
			<stop  offset="0.6641" style="stop-color:#8E3785"/>
			<stop  offset="0.8744" style="stop-color:#C75F8A"/>
			<stop  offset="0.9944" style="stop-color:#EB798D"/>
		</linearGradient>
		<path class="st21" d="M590.5,8"/>
	</g>
</g>
<g id="Kael_-_CC_White">
	<path id="card_template_1_" class="st22" d="M1437.3,739.5H68.3c-6.6,0-12-5.4-12-12V18c0-6.6,5.4-12,12-12h1369.1
		c6.6,0,12,5.4,12,12v709.5C1449.3,734.1,1443.9,739.5,1437.3,739.5z"/>
	<g>
		<path class="st23" d="M1178.2,651.3c0,2.7-0.5,5.3-1.6,7.6c-1,2.4-2.4,4.5-4.2,6.2s-3.9,3.2-6.2,4.2c-2.4,1-4.9,1.6-7.6,1.6h-32.8
			v-65.6h32.8c2.7,0,5.3,0.5,7.6,1.6c2.4,1,4.5,2.4,6.2,4.2s3.2,3.9,4.2,6.2c1,2.4,1.6,4.9,1.6,7.6c0,1.2-0.2,2.5-0.5,3.8
			c-0.3,1.3-0.8,2.5-1.4,3.7s-1.3,2.3-2.2,3.2c-0.9,1-1.8,1.8-2.8,2.4c1.1,0.6,2,1.4,2.9,2.4c0.9,1,1.6,2.1,2.2,3.3s1.1,2.4,1.4,3.7
			C1178,648.8,1178.2,650,1178.2,651.3z M1138.8,631.6h19.7c0.9,0,1.8-0.2,2.6-0.5c0.8-0.3,1.5-0.8,2.1-1.4s1.1-1.3,1.4-2.1
			c0.3-0.8,0.5-1.7,0.5-2.6s-0.2-1.8-0.5-2.6c-0.3-0.8-0.8-1.5-1.4-2.1s-1.3-1.1-2.1-1.4c-0.8-0.3-1.6-0.5-2.6-0.5h-19.7V631.6z
			 M1138.8,657.8h19.7c0.9,0,1.8-0.2,2.6-0.5s1.5-0.8,2.1-1.4s1.1-1.3,1.4-2.1c0.3-0.8,0.5-1.6,0.5-2.6s-0.2-1.8-0.5-2.6
			c-0.3-0.8-0.8-1.5-1.4-2.1s-1.3-1.1-2.1-1.4c-0.8-0.3-1.6-0.5-2.6-0.5h-19.7V657.8z"/>
		<path class="st23" d="M1239.9,670.9h-13.1v-13.1h-26.3v13.1h-13.1v-39.3c0-3.6,0.7-7,2.1-10.2c1.4-3.2,3.2-6,5.6-8.3
			c2.4-2.4,5.1-4.3,8.3-5.6c3.2-1.4,6.6-2.1,10.2-2.1s7,0.7,10.2,2.1c3.2,1.4,6,3.2,8.3,5.6s4.3,5.2,5.6,8.3
			c1.4,3.2,2.1,6.6,2.1,10.2V670.9z M1226.7,644.7v-13.1c0-1.8-0.3-3.5-1-5.1c-0.7-1.6-1.6-3-2.8-4.2s-2.6-2.1-4.2-2.8
			c-1.6-0.7-3.3-1-5.1-1s-3.5,0.3-5.1,1c-1.6,0.7-3,1.6-4.2,2.8s-2.1,2.6-2.8,4.2c-0.7,1.6-1,3.3-1,5.1v13.1H1226.7z"/>
		<path class="st23" d="M1303.7,670.9h-14l-25.3-43.2v43.2h-13.1v-65.6h14l25.3,43.2v-43.2h13.1V670.9z"/>
		<path class="st23" d="M1329,670.9h-13.1v-65.6h13.1v32.8l24.4-32.8h14.9l-20.7,27.7l20.7,37.9h-14.9l-14.4-26.5l-10,13.4V670.9z"
			/>
	</g>
	<g id="wifi_1_">
		<linearGradient id="SVGID_9_" gradientUnits="userSpaceOnUse" x1="1034.2054" y1="172.6119" x2="1060.3462" y2="172.6119">
			<stop  offset="0.257" style="stop-color:#42007F"/>
			<stop  offset="0.3421" style="stop-color:#4B0780"/>
			<stop  offset="0.4836" style="stop-color:#651982"/>
			<stop  offset="0.6641" style="stop-color:#8E3785"/>
			<stop  offset="0.8744" style="stop-color:#C75F8A"/>
			<stop  offset="0.9944" style="stop-color:#EB798D"/>
		</linearGradient>
		<path class="st24" d="M1055.5,220c-0.9-0.5-1.9-0.8-2.6-1.5c-7.1-7.2-12.2-15.6-15.4-25.2c-2.6-7.7-3.6-15.6-3.2-23.7
			c0.6-12.8,4.6-24.5,12.2-34.8c2.1-2.9,4.6-5.6,7.1-8.3c1.6-1.8,4.1-1.8,5.7-0.2c1.6,1.6,1.5,4-0.2,5.7
			c-7.6,7.6-12.9,16.7-15.3,27.2c-3.6,15.1-1.4,29.5,6.4,42.9c2.3,4,5.1,7.5,8.3,10.8c1.2,1.3,1.6,3,0.8,4.5
			c-0.6,1.4-2.1,2.3-3.6,2.3C1055.6,219.9,1055.6,219.9,1055.5,220z"/>
		<linearGradient id="SVGID_10_" gradientUnits="userSpaceOnUse" x1="1052.2642" y1="172.6282" x2="1073.0293" y2="172.6282">
			<stop  offset="0.257" style="stop-color:#42007F"/>
			<stop  offset="0.3421" style="stop-color:#4B0780"/>
			<stop  offset="0.4836" style="stop-color:#651982"/>
			<stop  offset="0.6641" style="stop-color:#8E3785"/>
			<stop  offset="0.8744" style="stop-color:#C75F8A"/>
			<stop  offset="0.9944" style="stop-color:#EB798D"/>
		</linearGradient>
		<path class="st25" d="M1052.3,171.7c0.1-11.4,4.6-22.8,13.9-32.2c1.7-1.7,4.1-1.8,5.7-0.2c1.6,1.6,1.5,4-0.2,5.7
			c-5.7,5.7-9.5,12.5-10.9,20.5c-2.3,13.1,1.1,24.7,10.1,34.5c1.1,1.2,1.8,2.5,1.5,4.1c-0.3,1.5-1.3,2.5-2.8,2.9
			c-1.4,0.4-2.8,0-3.8-1c-4.9-4.9-8.5-10.6-10.8-17.1C1053.3,183.9,1052.4,178.8,1052.3,171.7z"/>
		<linearGradient id="SVGID_11_" gradientUnits="userSpaceOnUse" x1="1070.0074" y1="172.7074" x2="1085.4281" y2="172.7074">
			<stop  offset="0.257" style="stop-color:#42007F"/>
			<stop  offset="0.3421" style="stop-color:#4B0780"/>
			<stop  offset="0.4836" style="stop-color:#651982"/>
			<stop  offset="0.6641" style="stop-color:#8E3785"/>
			<stop  offset="0.8744" style="stop-color:#C75F8A"/>
			<stop  offset="0.9944" style="stop-color:#EB798D"/>
		</linearGradient>
		<path class="st26" d="M1070,173.7c0.3-9.1,3.1-15.9,8.7-21.5c1.3-1.4,3.1-1.6,4.7-0.8c1.5,0.8,2.5,2.5,2,4.2
			c-0.3,0.9-0.9,1.8-1.5,2.5c-3.1,3.3-5,7.1-5.6,11.5c-1,6.8,0.9,12.8,5.6,17.9c1.4,1.6,1.8,3.4,0.8,5c-1.4,2.3-4.3,2.6-6.2,0.7
			c-3.6-3.7-6.2-8.1-7.3-13.1C1070.4,177.6,1070.2,175.1,1070,173.7z"/>
	</g>
	<path class="st9" d="M1392,692.7H111.6c-6.6,0-12-5.4-12-12V74.4c0-6.6,5.4-12,12-12H1392c6.6,0,12,5.4,12,12v606.3
		C1404,687.3,1398.6,692.7,1392,692.7z"/>
	<linearGradient id="SVGID_12_" gradientUnits="userSpaceOnUse" x1="593.5418" y1="6" x2="593.5418" y2="6">
		<stop  offset="0.257" style="stop-color:#42007F"/>
		<stop  offset="0.3421" style="stop-color:#4B0780"/>
		<stop  offset="0.4836" style="stop-color:#651982"/>
		<stop  offset="0.6641" style="stop-color:#8E3785"/>
		<stop  offset="0.8744" style="stop-color:#C75F8A"/>
		<stop  offset="0.9944" style="stop-color:#EB798D"/>
	</linearGradient>
	<path class="st27" d="M593.5,6"/>
	<g id="logotype_1_">
		<linearGradient id="SVGID_13_" gradientUnits="userSpaceOnUse" x1="511.08" y1="498.6319" x2="969.5688" y2="498.6319">
			<stop  offset="0.257" style="stop-color:#42007F"/>
			<stop  offset="0.3421" style="stop-color:#4B0780"/>
			<stop  offset="0.4836" style="stop-color:#651982"/>
			<stop  offset="0.6641" style="stop-color:#8E3785"/>
			<stop  offset="0.8744" style="stop-color:#C75F8A"/>
			<stop  offset="0.9944" style="stop-color:#EB798D"/>
		</linearGradient>
		<path class="st28" d="M648.1,257.8l321.5,481.7h-274c0,0-82.7-123.9-184.5-276.5L648.1,257.8z"/>
		<polyline class="st11" points="556.8,412.5 654.4,266.2 969.6,738.6 		"/>
		<polygon class="st12" points="721.8,367.4 516.9,470.8 454.9,377.9 598.1,182 		"/>
		<linearGradient id="SVGID_14_" gradientUnits="userSpaceOnUse" x1="471.0822" y1="739.5041" x2="471.0822" y2="6">
			<stop  offset="0.257" style="stop-color:#42007F"/>
			<stop  offset="0.3421" style="stop-color:#4B0780"/>
			<stop  offset="0.4836" style="stop-color:#651982"/>
			<stop  offset="0.6641" style="stop-color:#8E3785"/>
			<stop  offset="0.8744" style="stop-color:#C75F8A"/>
			<stop  offset="0.9944" style="stop-color:#EB798D"/>
		</linearGradient>
		<polygon class="st29" points="346,739.5 106.6,739.5 596.1,6 835.6,6 		"/>
		<polygon class="st11" points="593.5,6 348.6,724.3 828,6 		"/>
		<polyline class="st14" points="348.6,724.3 232.8,546.5 593.5,6 348.6,724.3 		"/>
		
			<linearGradient id="SVGID_15_" gradientUnits="userSpaceOnUse" x1="57.1612" y1="190.5084" x2="57.1612" y2="-367.6137" gradientTransform="matrix(1 0 0 1 148.9229 456.3055)">
			<stop  offset="0.257" style="stop-color:#42007F"/>
			<stop  offset="0.3421" style="stop-color:#4B0780"/>
			<stop  offset="0.4836" style="stop-color:#651982"/>
			<stop  offset="0.6641" style="stop-color:#8E3785"/>
			<stop  offset="0.8744" style="stop-color:#C75F8A"/>
			<stop  offset="0.9944" style="stop-color:#EB798D"/>
		</linearGradient>
		<path class="st30" d="M298,371.5c0,0-37-56.9-77.8-119.7c-1.2-1.9-2.4-3.8-3.7-5.6C167.4,170.5,114.2,88.7,114.2,88.7v558.1
			L298,371.5z"/>
		<polygon class="st16" points="297.9,373.8 114.1,649.1 220.1,254.1 		"/>
		<polyline class="st17" points="298.2,373.8 200.2,220.7 200.2,518.3 298.2,373.8 		"/>
		<path class="st18" d="M114.1,6"/>
		<linearGradient id="SVGID_16_" gradientUnits="userSpaceOnUse" x1="206.3142" y1="286.6966" x2="206.3142" y2="6">
			<stop  offset="0.257" style="stop-color:#42007F"/>
			<stop  offset="0.3421" style="stop-color:#4B0780"/>
			<stop  offset="0.4836" style="stop-color:#651982"/>
			<stop  offset="0.6641" style="stop-color:#8E3785"/>
			<stop  offset="0.8744" style="stop-color:#C75F8A"/>
			<stop  offset="0.9944" style="stop-color:#EB798D"/>
		</linearGradient>
		<polygon class="st31" points="298.2,6 298.2,286.7 114.4,6 		"/>
		<polyline class="st20" points="297.9,286.7 114.1,6 227.9,6 297.9,286.7 		"/>
		<polyline class="st20" points="298.2,287.9 298.2,147 206.3,147 298.2,287.3 		"/>
	</g>
	<g id="chip_1_">
		<path class="st23" d="M1359,242.1h-233.3c-6.6,0-12-5.4-12-12V118.6c0-6.6,5.4-12,12-12H1359c6.6,0,12,5.4,12,12v111.5
			C1371,236.7,1365.6,242.1,1359,242.1z"/>
		<rect x="1165.9" y="106.6" class="st8" width="7.7" height="135.5"/>
		<rect x="1305.9" y="106.6" class="st8" width="7.7" height="135.5"/>
		
			<rect x="1137.9" y="130.8" transform="matrix(6.123234e-17 -1 1 6.123234e-17 982.9507 1300.5487)" class="st8" width="7.7" height="56"/>
		
			<rect x="1137.9" y="172.1" transform="matrix(6.123234e-17 -1 1 6.123234e-17 941.6429 1341.8564)" class="st8" width="7.7" height="56"/>
		
			<rect x="1338.4" y="124.3" transform="matrix(6.123234e-17 -1 1 6.123234e-17 1189.3062 1495.3694)" class="st8" width="7.9" height="57.4"/>
		
			<rect x="1338.4" y="166.7" transform="matrix(6.123234e-17 -1 1 6.123234e-17 1146.9656 1537.7098)" class="st8" width="7.9" height="57.4"/>
	</g>
</g>
<g id="Kael_-_Vanity" class="st0">
	<path class="st1" d="M1422.3,741.5H53.3c-6.6,0-12-5.4-12-12V20c0-6.6,5.4-12,12-12h1369.1c6.6,0,12,5.4,12,12v709.5
		C1434.3,736.1,1428.9,741.5,1422.3,741.5z"/>
	<text transform="matrix(1 0 0 1 973.001 452.5996)" class="st3 st32 st33">membership</text>
	<image style="overflow:visible;" width="256" height="342" xlink:href="A384A40B.jpg"  transform="matrix(1 0 0 1 621 203)">
	</image>
	<g id="kael_logo">
		<linearGradient id="SVGID_17_" gradientUnits="userSpaceOnUse" x1="508.08" y1="500.6319" x2="966.5688" y2="500.6319">
			<stop  offset="0.257" style="stop-color:#42007F"/>
			<stop  offset="0.3421" style="stop-color:#4B0780"/>
			<stop  offset="0.4836" style="stop-color:#651982"/>
			<stop  offset="0.6641" style="stop-color:#8E3785"/>
			<stop  offset="0.8744" style="stop-color:#C75F8A"/>
			<stop  offset="0.9944" style="stop-color:#EB798D"/>
		</linearGradient>
		<path class="st34" d="M645.1,259.8l321.5,481.7h-274c0,0-82.7-123.9-184.5-276.5L645.1,259.8z"/>
		<polyline class="st35" points="553.8,414.5 651.4,268.2 966.6,740.6 		"/>
		<polygon class="st36" points="718.8,369.4 513.9,472.8 451.9,379.9 595.1,184 		"/>
		<linearGradient id="SVGID_18_" gradientUnits="userSpaceOnUse" x1="468.0822" y1="741.5041" x2="468.0822" y2="8">
			<stop  offset="0.257" style="stop-color:#42007F"/>
			<stop  offset="0.3421" style="stop-color:#4B0780"/>
			<stop  offset="0.4836" style="stop-color:#651982"/>
			<stop  offset="0.6641" style="stop-color:#8E3785"/>
			<stop  offset="0.8744" style="stop-color:#C75F8A"/>
			<stop  offset="0.9944" style="stop-color:#EB798D"/>
		</linearGradient>
		<polygon class="st37" points="343,741.5 103.6,741.5 593.1,8 832.6,8 		"/>
		<polygon class="st35" points="590.5,8 345.6,726.3 825,8 		"/>
		<polyline class="st38" points="345.6,726.3 229.8,548.5 590.5,8 345.6,726.3 		"/>
		
			<linearGradient id="SVGID_19_" gradientUnits="userSpaceOnUse" x1="54.1612" y1="192.5084" x2="54.1612" y2="-365.6137" gradientTransform="matrix(1 0 0 1 148.9229 456.3055)">
			<stop  offset="0.257" style="stop-color:#42007F"/>
			<stop  offset="0.3421" style="stop-color:#4B0780"/>
			<stop  offset="0.4836" style="stop-color:#651982"/>
			<stop  offset="0.6641" style="stop-color:#8E3785"/>
			<stop  offset="0.8744" style="stop-color:#C75F8A"/>
			<stop  offset="0.9944" style="stop-color:#EB798D"/>
		</linearGradient>
		<path class="st39" d="M295,373.5c0,0-37-56.9-77.8-119.7c-1.2-1.9-2.4-3.8-3.7-5.6C164.4,172.5,111.2,90.7,111.2,90.7v558.1
			L295,373.5z"/>
		<polygon class="st40" points="294.9,375.8 111.1,651.1 217.1,256.1 		"/>
		<polyline class="st41" points="295.2,375.8 197.2,222.7 197.2,520.3 295.2,375.8 		"/>
		<path class="st42" d="M111.1,8"/>
		<linearGradient id="SVGID_20_" gradientUnits="userSpaceOnUse" x1="203.3142" y1="288.6966" x2="203.3142" y2="8">
			<stop  offset="0.257" style="stop-color:#42007F"/>
			<stop  offset="0.3421" style="stop-color:#4B0780"/>
			<stop  offset="0.4836" style="stop-color:#651982"/>
			<stop  offset="0.6641" style="stop-color:#8E3785"/>
			<stop  offset="0.8744" style="stop-color:#C75F8A"/>
			<stop  offset="0.9944" style="stop-color:#EB798D"/>
		</linearGradient>
		<polygon class="st43" points="295.2,8 295.2,288.7 111.4,8 		"/>
		<polyline class="st44" points="294.9,288.7 111.1,8 224.9,8 294.9,288.7 		"/>
		<polyline class="st44" points="295.2,289.9 295.2,149 203.3,149 295.2,289.3 		"/>
		<linearGradient id="SVGID_21_" gradientUnits="userSpaceOnUse" x1="590.5418" y1="8" x2="590.5418" y2="8">
			<stop  offset="0.257" style="stop-color:#42007F"/>
			<stop  offset="0.3421" style="stop-color:#4B0780"/>
			<stop  offset="0.4836" style="stop-color:#651982"/>
			<stop  offset="0.6641" style="stop-color:#8E3785"/>
			<stop  offset="0.8744" style="stop-color:#C75F8A"/>
			<stop  offset="0.9944" style="stop-color:#EB798D"/>
		</linearGradient>
		<path class="st45" d="M590.5,8"/>
	</g>
	<g id="diamond_1_" class="st2">
		<g>
			<g>
				<linearGradient id="SVGID_22_" gradientUnits="userSpaceOnUse" x1="69.9786" y1="375" x2="897.6047" y2="375">
					<stop  offset="0.257" style="stop-color:#42007F"/>
					<stop  offset="0.3421" style="stop-color:#4B0780"/>
					<stop  offset="0.4836" style="stop-color:#651982"/>
					<stop  offset="0.6641" style="stop-color:#8E3785"/>
					<stop  offset="0.8744" style="stop-color:#C75F8A"/>
					<stop  offset="0.9944" style="stop-color:#EB798D"/>
				</linearGradient>
				<path class="st46" d="M895.1,220.9C751.8,37.2,757.9,41.8,750.3,41L526,10.8c-56.5-7.6-94.9,2.3-114.5,4.1
					c-6.6,0.9-11.2,6.9-10.3,13.5c0.9,6.6,6.9,11.2,13.5,10.3c19.9-1.8,55.5-11.1,108.1-4.1l154,20.7c-11.5,2.3-181.5,37-193,39.3
					l-193-39.3l66.7-9c6.6-0.9,11.2-6.9,10.3-13.5c-0.9-6.6-7-11.2-13.5-10.3L217.3,41c0,0,0,0-0.1,0l-0.2,0c-0.2,0-0.4,0.1-0.5,0.1
					c-0.1,0-0.2,0-0.4,0.1c-0.1,0-0.2,0-0.3,0.1c-0.1,0-0.3,0.1-0.4,0.1c-0.2,0.1-0.4,0.1-0.6,0.2c-0.1,0-0.2,0.1-0.3,0.1
					c0,0-0.1,0-0.1,0c-0.1,0-0.2,0.1-0.4,0.1c-0.2,0.1-0.4,0.2-0.6,0.3c-0.1,0-0.2,0.1-0.3,0.1c-0.1,0.1-0.2,0.1-0.3,0.2
					c-0.1,0.1-0.2,0.1-0.3,0.2c-5.2,3-2.7,3.3-140.1,178.3c-2.9,3.7-3.3,8.6-1.3,12.8c4.8,9.6-8-9.4,257.3,342.9
					c4,5.3,11.5,6.4,16.8,2.4c5.3-4,6.4-11.5,2.4-16.8L114.7,253.2L303,312.5c4.5,11.9,142.5,375.7,145,382.5l-66.4-88
					c-4-5.3-11.5-6.4-16.8-2.4c-5.3,4-6.4,11.5-2.4,16.8c69.5,92.1,76.6,101.6,77.1,102.2c8.8,9.9,20.9,16.2,32.5,18.1
					c1.7,0.3,21.9,0.3,23.5,0c14.6-2.8,27-11.1,32.8-18.8l234.7-311.1c4-5.3,2.9-12.8-2.4-16.8c-5.3-4-12.8-2.9-16.8,2.4L519.5,695
					c7.2-18.9,139.7-368.6,145-382.5l188.3-59.3l-75,99.4c-4,5.3-2.9,12.8,2.4,16.8c5.3,4,12.8,2.9,16.8-2.4
					c100.7-133.6,95.3-125.5,99.3-133.4C898.4,229.6,897.9,224.6,895.1,220.9z M483.8,125.3l145.1,165.5H338.7L483.8,125.3z
					 M100.9,223.6L215,77.3l77.3,206.6L100.9,223.6z M237.6,69.1c23.8,4.9,194.5,39.6,223.5,45.6L316.4,279.7L237.6,69.1z
					 M485.1,717.9h-2.7L329.6,314.8H638L485.1,717.9z M651.2,279.7L506.5,114.7c19.2-3.9,193.9-39.5,223.5-45.6L651.2,279.7z
					 M675.3,283.9l77.3-206.6l114.1,146.3L675.3,283.9z"/>
			</g>
		</g>
	</g>
	<g id="verifield" class="st2">
		<g>
			<path class="st47" d="M1115.4,373.2l-11.4-12.6l1.8-16.9l-16.6-3.5l-8.5-14.7l-15.5,6.9l-15.5-6.9l-8.5,14.7l-16.6,3.5l1.8,16.9
				l-11.4,12.6l11.4,12.6l-1.8,16.9l16.6,3.5l8.5,14.7l15.5-6.9l15.5,6.9l8.5-14.7l16.6-3.5l-1.8-16.9L1115.4,373.2z M1086.3,362.2
				l-25.2,28.2l-17.5-17.5l4.2-4.2l13.1,13.1l21.1-23.6L1086.3,362.2z"/>
		</g>
	</g>
	<text transform="matrix(1 0 0 1 524.001 637.1943)" class="st48 st32 st49">VANITY</text>
</g>
<g id="Kael_-_Vanity_1_" class="st0">
	<g id="Card_2" class="st2">
		
			<linearGradient id="SVGID_23_" gradientUnits="userSpaceOnUse" x1="767.3118" y1="699.7397" x2="767.3118" y2="125.5209" gradientTransform="matrix(0.9986 5.337639e-02 -5.337639e-02 0.9986 21.0572 -39.4444)">
			<stop  offset="5.617963e-03" style="stop-color:#EB9CA9"/>
			<stop  offset="0.1256" style="stop-color:#C77BA0"/>
			<stop  offset="0.3359" style="stop-color:#8E4692"/>
			<stop  offset="0.5164" style="stop-color:#652088"/>
			<stop  offset="0.6579" style="stop-color:#4B0981"/>
			<stop  offset="0.743" style="stop-color:#42007F"/>
		</linearGradient>
		<path class="st50" d="M997.6,182.5c-12.3-0.7-21.4-10.8-20.8-23.1c0.7-12.3-8.5-22.5-20.8-23.1L605,117.5
			c-12.3-0.7-22.5,8.5-23.1,20.8s-10.8,21.4-23.1,20.8c-12.3-0.7-22.5,8.5-23.1,20.8l-23.6,441.8c-0.7,12.3,8.5,22.5,20.8,23.1
			c12.3,0.7,21.4,10.8,20.8,23.1c-0.7,12.3,8.5,22.5,20.8,23.1l351.1,18.8c12.3,0.7,22.5-8.5,23.1-20.8
			c0.7-12.3,10.8-21.4,23.1-20.8c12.3,0.7,22.5-8.5,23.1-20.8l23.6-441.8C1019.1,193.3,1009.9,183.1,997.6,182.5z"/>
		
			<linearGradient id="SVGID_24_" gradientUnits="userSpaceOnUse" x1="888.1614" y1="699.7397" x2="888.1614" y2="125.5209" gradientTransform="matrix(0.9986 5.337639e-02 -5.337639e-02 0.9986 21.0572 -39.4444)">
			<stop  offset="5.617963e-03" style="stop-color:#EB798D"/>
			<stop  offset="0.1256" style="stop-color:#C75F8A"/>
			<stop  offset="0.3359" style="stop-color:#8E3785"/>
			<stop  offset="0.5164" style="stop-color:#651982"/>
			<stop  offset="0.6579" style="stop-color:#4B0780"/>
			<stop  offset="0.743" style="stop-color:#42007F"/>
		</linearGradient>
		<path class="st51" d="M1018.4,205.6l-23.6,441.8c-0.7,12.3-10.8,21.4-23.1,20.8c-12.3-0.7-22.5,8.5-23.1,20.8
			c-0.7,12.3-10.8,21.4-23.1,20.8l-175.5-9.4l30.6-573.4l175.5,9.4c12.3,0.7,21.4,10.8,20.8,23.1c-0.7,12.3,8.5,22.5,20.8,23.1
			C1009.9,183.1,1019.1,193.3,1018.4,205.6z"/>
		
			<rect x="723.6" y="324.9" transform="matrix(5.337639e-02 -0.9986 0.9986 5.337639e-02 240.7075 1235.0956)" class="st52" width="96.3" height="331.4"/>
		<text transform="matrix(0.9986 5.338000e-02 -5.338000e-02 0.9986 605.1493 503.051)" class="st22 st32 st53">VANITY</text>
		<path class="st54" d="M1018.4,205.6l-23.6,441.8c-0.7,12.3-10.8,21.4-23.1,20.8c-12.3-0.7-22.5,8.5-23.1,20.8
			c-0.7,12.3-10.8,21.4-23.1,20.8l-175.5-9.4l30.6-573.4l175.5,9.4c12.3,0.7,21.4,10.8,20.8,23.1c-0.7,12.3,8.5,22.5,20.8,23.1
			C1009.9,183.1,1019.1,193.3,1018.4,205.6z"/>
		<circle class="st55" cx="843.6" cy="593.8" r="22"/>
		<path class="st56" d="M777.8,590.3c-0.7,12.3-10.8,21.4-23.1,20.8l-87.8-4.7c-12.3-0.7-21.4-10.8-20.8-23.1
			c0.7-12.3,10.8-21.4,23.1-20.8l87.8,4.7C769.3,567.8,778.5,578,777.8,590.3z"/>
		<path class="st55" d="M777.8,590.3c-0.7,12.3-10.8,21.4-23.1,20.8l2.3-43.9C769.3,567.8,778.5,578,777.8,590.3z"/>
		<g>
			<path class="st57" d="M826.5,117.5C691.3,110.3,576,214,568.7,349.1c-5.3,99.8,49.8,188.8,133.4,231.4l198.5,10.6
				c87.7-33.5,152-116.1,157.3-215.9C1065.3,240.1,961.6,124.7,826.5,117.5L826.5,117.5z"/>
			<path class="st58" d="M634.5,273L702,386.6c18.5,9.4,39.2,15.4,61.2,16.9l6.9-128.8l-136.4-7.3
				C633.2,269.3,633.5,271.3,634.5,273z"/>
			<path class="st59" d="M776.9,75.1l-142,189.5c-0.9,1.2-1.4,2.7-1.5,4.1l136.6,7.3l10.9-203.6l0,0C779.3,72.9,778,73.8,776.9,75.1
				L776.9,75.1z"/>
			<path class="st60" d="M768.1,403.8c22,0.8,43.2-2.9,62.6-10.3l79.2-105.8c1.2-1.6,1.7-3.6,1.4-5.5L775,274.9L768.1,403.8z"/>
			<path class="st61" d="M785.8,72.7L785.8,72.7l-10.9,203.6l136.5,7.3c0.1-1.5-0.3-2.9-1-4.3l-121-203.6
				C788.5,74.3,787.3,73.3,785.8,72.7L785.8,72.7z"/>
			<path class="st62" d="M772.5,274.8l-6.9,128.9c11.4,0.6,22.5,0,33.3-1.7l51.6-115.2c1.1-2.5,1.6-5.1,1.5-7.7L772.5,274.8
				L772.5,274.8z"/>
			<path class="st60" d="M772.4,276.2l79.6,4.3c0.1-2.2-0.2-4.4-0.9-6.5L785.8,72.7c-0.8-0.3-1.6-0.5-2.5-0.5L772.4,276.2z"/>
			<path class="st59" d="M693,270.6c-0.3,2.6-0.1,5.3,0.7,7.9l39,120c10.6,2.8,21.6,4.6,33,5.3l6.9-128.9L693,270.6z"/>
			<path class="st62" d="M694.4,265.6c-0.9,2-1.4,4.2-1.5,6.4l79.6,4.3l10.9-204.1c-0.8,0-1.7,0-2.5,0.3L694.4,265.6z"/>
			<g class="st0">
				<path class="st63" d="M918,140.6c-2.5,10.5-2.5,23,3.9,36.3c17.1,35.5,95.9,167.3,95.9,167.3s15.1,23.9,40.4,26.6
					C1061.8,270.2,1004,181.2,918,140.6L918,140.6z"/>
				<path class="st63" d="M569,344.6c25.5,0,43-22.2,43-22.2s92.4-122.6,113.2-156.1c7.7-12.5,9.1-25,7.8-35.7
					C643.1,161.9,576.2,244.3,569,344.6z"/>
			</g>
		</g>
	</g>
	<linearGradient id="SVGID_25_" gradientUnits="userSpaceOnUse" x1="703.6777" y1="679" x2="703.6777" y2="104.7813">
		<stop  offset="0.257" style="stop-color:#42007F"/>
		<stop  offset="0.3421" style="stop-color:#4B0981"/>
		<stop  offset="0.4836" style="stop-color:#652088"/>
		<stop  offset="0.6641" style="stop-color:#8E4692"/>
		<stop  offset="0.8744" style="stop-color:#C77BA0"/>
		<stop  offset="0.9944" style="stop-color:#EB9CA9"/>
	</linearGradient>
	<path class="st64" d="M923.4,148.7c-12.3,0-22-9.7-22-22s-9.7-22-22-22H527.9c-12.3,0-22,9.7-22,22s-9.7,22-22,22s-22,9.7-22,22
		v442.4c0,12.3,9.7,22,22,22s22,9.7,22,22s9.7,22,22,22h351.6c12.3,0,22-9.7,22-22s9.7-22,22-22s22-9.7,22-22V170.7
		C945.4,158.4,935.7,148.7,923.4,148.7z"/>
	<linearGradient id="SVGID_26_" gradientUnits="userSpaceOnUse" x1="824.5273" y1="679" x2="824.5273" y2="104.7813">
		<stop  offset="0.257" style="stop-color:#42007F"/>
		<stop  offset="0.3421" style="stop-color:#4B0780"/>
		<stop  offset="0.4836" style="stop-color:#651982"/>
		<stop  offset="0.6641" style="stop-color:#8E3785"/>
		<stop  offset="0.8744" style="stop-color:#C75F8A"/>
		<stop  offset="0.9944" style="stop-color:#EB798D"/>
	</linearGradient>
	<path class="st65" d="M945.4,170.7v442.4c0,12.3-9.7,22-22,22s-22,9.7-22,22s-9.7,22-22,22H703.7V104.8h175.8c12.3,0,22,9.7,22,22
		s9.7,22,22,22S945.4,158.4,945.4,170.7z"/>
	<g id="verifield_1_">
		<g class="st2">
			<path class="st66" d="M659.4,439.2l-11.4-12.6l1.8-16.9l-16.6-3.5l-8.5-14.7l-15.5,6.9l-15.5-6.9l-8.5,14.7l-16.6,3.5l1.8,16.9
				L559,439.2l11.4,12.6l-1.8,16.9l16.6,3.5l8.5,14.7l15.5-6.9l15.5,6.9l8.5-14.7l16.6-3.5l-1.8-16.9L659.4,439.2z M630.3,428.2
				l-25.2,28.2L587.5,439l4.2-4.2l13.1,13.1l21.1-23.6L630.3,428.2z"/>
		</g>
	</g>
	<rect x="548.6" y="420.3" class="st67" width="331.4" height="96.3"/>
	<text transform="matrix(1 0 0 1 548.645 489.8101)" class="st68 st32 st53">VANITY</text>
	<path class="st69" d="M945.4,170.7v442.4c0,12.3-9.7,22-22,22s-22,9.7-22,22s-9.7,22-22,22H703.7V104.8h175.8c12.3,0,22,9.7,22,22
		s9.7,22,22,22S945.4,158.4,945.4,170.7z"/>
	<circle class="st70" cx="791.6" cy="567.7" r="22"/>
	<path class="st71" d="M725.7,567.7c0,12.3-9.7,22-22,22h-87.9c-12.3,0-22-9.7-22-22s9.7-22,22-22h87.9
		C716,545.7,725.7,555.4,725.7,567.7z"/>
	<path class="st70" d="M725.7,567.7c0,12.3-9.7,22-22,22v-43.9C716,545.7,725.7,555.4,725.7,567.7z"/>
	<g id="ruby" class="st2">
		<g>
			<path class="st57" d="M749,93c-135.3,0-245,109.7-245,245c0,99.9,59.8,185.9,145.6,224h198.8C934.2,523.9,994,437.9,994,338
				C994,202.7,884.3,93,749,93L749,93z"/>
			<path class="st58" d="M565.6,258.5l73.5,109.8c19,8.4,40,13.3,62,13.6V253H564.5C564.1,254.9,564.5,256.9,565.6,258.5z"/>
			<path class="st59" d="M697.3,53.3L565.6,250.1c-0.8,1.3-1.3,2.7-1.3,4.2h136.8V50.4h0C699.6,50.9,698.2,51.9,697.3,53.3
				L697.3,53.3z"/>
			<path class="st60" d="M706,382c22-0.3,43-5.2,62-13.6l73.5-109.8c1.1-1.7,1.5-3.7,1.1-5.6H706V382z"/>
			<path class="st61" d="M706,50.4L706,50.4l0,203.9h136.7c0-1.5-0.4-2.9-1.3-4.2L709.8,53.3C708.8,51.9,707.5,50.9,706,50.4
				L706,50.4z"/>
			<path class="st62" d="M703.5,253v129c11.4,0,22.5-1.2,33.2-3.5l45.3-117.7c1-2.5,1.3-5.2,1.1-7.8L703.5,253L703.5,253z"/>
			<path class="st60" d="M703.5,254.3h79.7c0-2.2-0.4-4.4-1.2-6.4L706,50.4c-0.8-0.3-1.6-0.4-2.5-0.4L703.5,254.3z"/>
			<path class="st59" d="M623.9,253c-0.2,2.6,0.2,5.3,1.1,7.8l45.3,117.7c10.7,2.3,21.8,3.5,33.2,3.5V253H623.9z"/>
			<path class="st62" d="M625,247.9c-0.8,2.1-1.2,4.2-1.2,6.4h79.7V50c-0.8,0-1.7,0.1-2.5,0.4L625,247.9z"/>
			<g class="st0">
				<path class="st63" d="M841.7,111.1c-1.9,10.6-1.2,23.1,5.8,36c18.9,34.6,104.7,161.9,104.7,161.9s16.4,23,41.8,24.4
					C992.1,232.9,929.7,147.2,841.7,111.1L841.7,111.1z"/>
				<path class="st63" d="M504.1,333.5c25.4-1.4,41.8-24.4,41.8-24.4s85.7-127.3,104.7-161.9c7.1-12.9,7.8-25.4,5.8-36
					C568.3,147.2,505.9,232.9,504.1,333.5z"/>
			</g>
		</g>
	</g>
</g>
<g id="Kael__-_Freeze" class="st0">
	<g class="st2">
		<path class="st72" d="M733.8,381l-39.8,16.6c-0.9,0.4-1.8,0.3-2.6-0.2l-32.9-19c-2.1-1.2-1.9-4.4,0.3-5.3l26-10.8
			c7.8-3.3,12-12.1,9.2-20c-3.1-8.5-12.6-12.6-20.8-9.2l-52.9,22c-0.9,0.4-1.8,0.3-2.6-0.2l-10.1-5.8c-1.2-0.7-1.8-2.2-1.4-3.5
			c2.7-8.4,4.2-17.3,4.2-26.5c0-10.1-1.8-19.8-5-28.8l13.5-7.8l54.2,22.6c8,3.3,17.2-0.5,20.5-8.5c3.3-8-0.5-17.2-8.5-20.5l-32-13.3
			l39.4-22.8l40.8,17c7.8,3.3,17,0,20.6-7.6c3.9-8.2,0.1-17.8-8.2-21.2l-19-7.9l12.7-7.3c7.3-4.2,10.4-13.5,6.5-21
			c-4.1-8-14.1-10.9-21.8-6.4l-13.1,7.6l2.7-20.4c1.1-8.6-5-16.5-13.6-17.6c-8.6-1.1-16.5,4.9-17.6,13.6l-5.8,44.3l-39.4,22.8
			l4.5-34.4c1.1-8.6-5-16.5-13.6-17.6c-8.6-1.1-16.5,4.9-17.6,13.6l-7.6,58.2l-13.6,7.8c-12.1-14.1-28.6-24.3-47.4-28.3
			c-1.4-0.3-2.4-1.5-2.4-2.9V220c0-0.9,0.4-1.8,1.2-2.4l45.1-34.5c6.7-5.1,8.6-14.7,3.7-21.7c-5.1-7.4-15.4-9-22.5-3.5l-22.7,17.4
			c-2,1.5-4.8,0.1-4.8-2.4v-38c0-0.9,0.4-1.8,1.2-2.4l33.9-26c6.7-5.1,8.6-14.7,3.7-21.7c-5.1-7.4-15.4-9-22.5-3.5l-11.6,8.8
			c-2,1.5-4.8,0.1-4.8-2.4v-8.6c0-8.5-6.5-15.7-15-16.1c-9-0.4-16.5,6.8-16.5,15.7v9.1c0,2.5-2.8,3.9-4.8,2.4l-11.2-8.6
			c-6.7-5.1-16.5-4.4-21.9,2.1c-5.8,6.9-4.6,17.2,2.5,22.6l34.3,26.2c0.7,0.6,1.2,1.4,1.2,2.4v38c0,2.5-2.8,3.9-4.8,2.4l-22.7-17.4
			c-7.1-5.4-17.3-3.9-22.5,3.5c-4.8,7-3,16.5,3.7,21.7l45.1,34.5c0.7,0.6,1.2,1.4,1.2,2.4v11.7c0,1.4-1,2.6-2.4,2.9
			c-18,3.9-33.9,13.3-45.8,26.5c-0.9,1-2.5,1.3-3.7,0.6l-10.2-5.9c-0.8-0.5-1.3-1.3-1.5-2.2l-7.4-56.8c-1.1-8.6-9-14.7-17.6-13.6
			c-8.6,1.1-14.7,9-13.6,17.6l3.7,28.4c0.3,2.5-2.3,4.2-4.5,3l-32.9-19c-0.8-0.5-1.3-1.3-1.5-2.2l-5.6-42.8
			c-1.1-8.6-9-14.7-17.6-13.6c-8.6,1.1-14.7,9-13.6,17.6l1.9,14.4c0.3,2.5-2.3,4.2-4.5,3l-7.5-4.3c-7.3-4.2-16.9-2.2-21.5,4.9
			c-4.9,7.6-2.4,17.7,5.4,22.1l7.9,4.5c2.1,1.2,1.9,4.4-0.3,5.3l-13,5.4c-7.8,3.3-12,12.1-9.2,20c3.1,8.5,12.6,12.6,20.8,9.2
			l39.8-16.6c0.9-0.4,1.8-0.3,2.6,0.2l32.9,19c2.1,1.2,1.9,4.4-0.3,5.3l-26.4,11c-8,3.3-11.8,12.5-8.5,20.5
			c3.3,8,12.5,11.8,20.5,8.5l52.9-22c0.9-0.4,1.8-0.3,2.6,0.2l10.1,5.8c1.2,0.7,1.8,2.2,1.4,3.5c-2.7,8.4-4.2,17.3-4.2,26.5
			s1.5,18.2,4.2,26.5c0.4,1.3-0.2,2.8-1.4,3.5l-10.1,5.8c-0.8,0.5-1.8,0.5-2.6,0.2l-52.9-22c-8.2-3.4-17.7,0.7-20.8,9.2
			c-2.9,8,1.3,16.8,9.2,20l26,10.8c2.3,1,2.5,4.1,0.3,5.3l-32.9,19c-0.8,0.5-1.8,0.5-2.6,0.2L314.2,381c-8-3.3-17.2,0.5-20.5,8.5
			c-3.3,8,0.5,17.2,8.5,20.5l13.4,5.6c2.3,1,2.5,4.1,0.3,5.3l-7.5,4.3c-7.3,4.2-10.3,13.4-6.6,20.9c2.8,5.5,8.3,8.7,14.1,8.7
			c2.7,0,5.4-0.7,7.8-2.1l7.9-4.5c2.1-1.2,4.8,0.5,4.5,3l-1.9,14.4c-1.2,9.4,6.1,17.7,15.6,17.7c7.8,0,14.5-5.8,15.6-13.7l5.6-42.8
			c0.1-0.9,0.7-1.7,1.5-2.2l32.9-19c2.1-1.2,4.8,0.5,4.5,3l-3.7,28.4c-1.1,8.6,4.9,16.5,13.6,17.6c0.7,0.1,1.4,0.1,2,0.1
			c7.8,0,14.5-5.8,15.6-13.7l7.4-56.8c0.1-0.9,0.7-1.7,1.5-2.2l10.2-5.9c1.2-0.7,2.8-0.4,3.7,0.6c11.9,13.2,27.9,22.7,45.8,26.5
			c1.4,0.3,2.4,1.5,2.4,2.9V418c0,0.9-0.4,1.8-1.2,2.4L462,454.9c-6.9,5.3-8.6,15.5-3.3,22.3c3.1,4,7.7,6.1,12.5,6.1
			c3.3,0,6.7-1.1,9.5-3.2l22.7-17.4c2-1.5,4.8-0.1,4.8,2.4v38c0,0.9-0.4,1.8-1.2,2.4l-33.9,26c-6.7,5.1-8.6,14.7-3.7,21.7
			c5.1,7.4,15.4,9,22.5,3.5l11.6-8.8c2-1.5,4.8-0.1,4.8,2.4v8.6c0,8.5,6.5,15.7,15,16.1c9,0.4,16.5-6.8,16.5-15.7v-9.1
			c0-2.5,2.8-3.9,4.8-2.4l11.6,8.8c7.1,5.4,17.4,3.9,22.5-3.6c4.8-7,3-16.5-3.8-21.7l-33.9-25.9c-0.7-0.6-1.2-1.4-1.2-2.4v-38
			c0-2.5,2.8-3.9,4.8-2.4l22.7,17.4c6.9,5.3,16.8,4,22-2.9c5.3-6.9,4-16.8-2.9-22l-45.5-34.8c-0.7-0.6-1.2-1.4-1.2-2.4v-11.7
			c0-1.4,1-2.6,2.4-2.9c18-3.9,33.9-13.3,45.9-26.5c0.9-1,2.5-1.3,3.7-0.6l10.2,5.9c0.8,0.5,1.3,1.3,1.5,2.2l7.4,56.8
			c1,7.9,7.8,13.7,15.6,13.7c0.7,0,1.4,0,2-0.1c8.6-1.1,14.7-9,13.6-17.6l-3.7-28.4c-0.3-2.5,2.3-4.2,4.5-3l32.9,19
			c0.8,0.5,1.3,1.3,1.5,2.2l5.6,42.8c1,7.9,7.8,13.7,15.6,13.7c9.5,0,16.8-8.4,15.6-17.7l-1.9-14.4c-0.3-2.5,2.3-4.2,4.5-3l7.9,4.5
			c7.7,4.5,17.7,1.6,21.8-6.4c3.9-7.5,0.8-16.8-6.5-21l-7.5-4.3c-2.1-1.2-1.9-4.4,0.3-5.3l13-5.4c7.8-3.3,12-12.1,9.2-20
			C751.5,381.7,742,377.6,733.8,381L733.8,381z M524,373.9c-30.2,0-54.9-24.6-54.9-54.9c0-30.2,24.6-54.9,54.9-54.9
			c30.2,0,54.9,24.6,54.9,54.9C578.9,349.2,554.2,373.9,524,373.9z"/>
		<path class="st73" d="M524,556V418.3c0-6.8-3.8-13-9.8-16.2c-17.6-9.5-52.9-34.5-52.9-83c0-48,34.6-71.1,52.3-79.8
			c6.3-3.1,10.3-9.5,10.3-16.5V85.1c0-10.5,4.7-16,9.4-18.9c-2.4-1.9-5.4-3-8.6-3.2c-9-0.4-16.5,6.8-16.5,15.7v9.1
			c0,2.5-2.8,3.9-4.8,2.4l-11.2-8.6c-6.7-5.1-16.5-4.4-21.9,2.1c-5.8,6.9-4.6,17.2,2.5,22.6l34.3,26.2c0.7,0.6,1.2,1.4,1.2,2.4v38
			c0,2.5-2.8,3.9-4.8,2.4l-22.7-17.4c-7.1-5.4-17.3-3.9-22.5,3.5c-4.8,7-3,16.5,3.7,21.7l45.1,34.5c0.7,0.6,1.2,1.4,1.2,2.4v11.7
			c0,1.4-1,2.6-2.4,2.9c-18,3.9-33.9,13.3-45.8,26.5c-0.9,1-2.5,1.3-3.7,0.6l-10.2-5.9c-0.8-0.5-1.3-1.3-1.5-2.2l-7.4-56.8
			c-1.1-8.6-9-14.7-17.6-13.6c-8.6,1.1-14.7,9-13.6,17.6l3.7,28.4c0.3,2.5-2.3,4.2-4.5,3l-32.9-19c-0.8-0.5-1.3-1.3-1.5-2.2
			l-5.6-42.8c-1.1-8.6-9-14.7-17.6-13.6c-8.6,1.1-14.7,9-13.6,17.6l1.9,14.4c0.3,2.5-2.3,4.2-4.5,3l-7.5-4.3
			c-7.3-4.2-16.9-2.2-21.5,4.9c-4.9,7.6-2.4,17.7,5.4,22.1l7.9,4.5c2.1,1.2,1.9,4.4-0.3,5.3l-13,5.4c-7.8,3.3-12,12.1-9.2,20
			c3.1,8.5,12.6,12.6,20.8,9.2l39.8-16.6c0.9-0.4,1.8-0.3,2.6,0.2l32.9,19c2.1,1.2,1.9,4.4-0.3,5.3l-26.4,11
			c-8,3.3-11.8,12.5-8.5,20.5c3.3,8,12.5,11.8,20.5,8.5l52.9-22c0.9-0.4,1.8-0.3,2.6,0.2l10.1,5.8c1.2,0.7,1.8,2.2,1.4,3.5
			c-2.7,8.4-4.2,17.3-4.2,26.5c0,9.3,1.5,18.2,4.2,26.5c0.4,1.3-0.2,2.8-1.4,3.5l-10.1,5.8c-0.8,0.5-1.8,0.5-2.6,0.2l-52.9-22
			c-8.2-3.4-17.7,0.7-20.8,9.2c-2.9,8,1.3,16.8,9.2,20l26,10.8c2.3,1,2.5,4.1,0.3,5.3l-32.9,19c-0.8,0.5-1.8,0.5-2.6,0.2L314.2,381
			c-8-3.3-17.2,0.5-20.5,8.5c-3.3,8,0.5,17.2,8.5,20.5l13.4,5.6c2.3,1,2.5,4.1,0.3,5.3l-7.5,4.3c-7.3,4.2-10.3,13.4-6.6,20.9
			c2.8,5.5,8.3,8.7,14.1,8.7c2.7,0,5.4-0.7,7.8-2.1l7.9-4.5c2.1-1.2,4.8,0.5,4.5,3l-1.9,14.4c-1.2,9.4,6.1,17.7,15.6,17.7
			c7.8,0,14.5-5.8,15.6-13.7l5.6-42.8c0.1-0.9,0.7-1.7,1.5-2.2l32.9-19c2.1-1.2,4.8,0.5,4.5,3l-3.7,28.4c-1.1,8.6,5,16.5,13.6,17.6
			c0.7,0.1,1.4,0.1,2,0.1c7.8,0,14.5-5.8,15.6-13.7l7.4-56.8c0.1-0.9,0.7-1.7,1.5-2.2l10.2-5.9c1.2-0.7,2.8-0.4,3.7,0.6
			c11.9,13.2,27.9,22.7,45.9,26.5c1.4,0.3,2.4,1.5,2.4,2.9V418c0,0.9-0.4,1.8-1.2,2.4L462,454.9c-6.9,5.3-8.6,15.5-3.3,22.3
			c3.1,4,7.7,6.1,12.5,6.1c3.3,0,6.7-1.1,9.5-3.2l22.7-17.4c2-1.5,4.8-0.1,4.8,2.4v38c0,0.9-0.4,1.8-1.2,2.4l-33.9,26
			c-6.7,5.1-8.6,14.7-3.7,21.7c5.1,7.4,15.4,9,22.5,3.5l11.6-8.8c2-1.5,4.8-0.1,4.8,2.4v8.6c0,8.4,6.4,15.7,14.9,16.1
			c4.1,0.2,8-1.2,10.9-3.6C524.8,566.2,524,556,524,556L524,556z"/>
	</g>
	<g id="_x3C_Grupo_2_x3E_" class="st2">
		<g>
			<path class="st72" d="M1011.8,379.2l-17.8,7.4c-0.4,0.2-0.8,0.1-1.2-0.1l-14.7-8.5c-1-0.6-0.9-2,0.2-2.4l11.6-4.8
				c3.5-1.5,5.4-5.4,4.1-8.9c-1.4-3.8-5.6-5.6-9.3-4.1l-23.6,9.8c-0.4,0.2-0.8,0.1-1.2-0.1l-4.5-2.6c-0.5-0.3-0.8-1-0.6-1.6
				c1.2-3.7,1.9-7.7,1.9-11.9c0-4.5-0.8-8.9-2.2-12.9l6.1-3.5l24.2,10.1c3.6,1.5,7.7-0.2,9.2-3.8c1.5-3.6-0.2-7.7-3.8-9.2l-14.3-6
				l17.6-10.2l18.2,7.6c3.5,1.5,7.6,0,9.2-3.4c1.7-3.7,0-8-3.7-9.5l-8.5-3.5l5.7-3.3c3.3-1.9,4.6-6,2.9-9.4
				c-1.9-3.6-6.3-4.9-9.8-2.9l-5.9,3.4l1.2-9.1c0.5-3.8-2.2-7.4-6.1-7.9c-3.9-0.5-7.4,2.2-7.9,6.1l-2.6,19.8l-17.6,10.2l2-15.4
				c0.5-3.8-2.2-7.4-6.1-7.9c-3.9-0.5-7.4,2.2-7.9,6.1l-3.4,26l-6.1,3.5c-5.4-6.3-12.8-10.9-21.2-12.7c-0.6-0.1-1.1-0.7-1.1-1.3
				v-5.2c0-0.4,0.2-0.8,0.5-1.1l20.2-15.4c3-2.3,3.8-6.6,1.7-9.7c-2.3-3.3-6.9-4-10.1-1.6l-10.2,7.8c-0.9,0.7-2.1,0-2.1-1.1v-17
				c0-0.4,0.2-0.8,0.5-1.1l15.2-11.6c3-2.3,3.8-6.6,1.7-9.7c-2.3-3.3-6.9-4-10.1-1.6l-5.2,4c-0.9,0.7-2.1,0-2.1-1.1v-3.9
				c0-3.8-2.9-7-6.7-7.2c-4-0.2-7.4,3-7.4,7v4.1c0,1.1-1.3,1.7-2.1,1.1l-5-3.8c-3-2.3-7.4-2-9.8,0.9c-2.6,3.1-2.1,7.7,1.1,10.1
				l15.3,11.7c0.3,0.3,0.5,0.6,0.5,1.1v17c0,1.1-1.3,1.7-2.1,1.1l-10.2-7.8c-3.2-2.4-7.8-1.7-10.1,1.6c-2.2,3.1-1.3,7.4,1.7,9.7
				l20.2,15.4c0.3,0.3,0.5,0.6,0.5,1.1v5.2c0,0.6-0.5,1.2-1.1,1.3c-8,1.7-15.2,6-20.5,11.9c-0.4,0.5-1.1,0.6-1.7,0.3l-4.6-2.6
				c-0.4-0.2-0.6-0.6-0.7-1l-3.3-25.4c-0.5-3.8-4-6.6-7.9-6.1c-3.8,0.5-6.6,4-6.1,7.9l1.7,12.7c0.1,1.1-1,1.9-2,1.3l-14.7-8.5
				c-0.4-0.2-0.6-0.6-0.7-1l-2.5-19.1c-0.5-3.8-4-6.6-7.9-6.1c-3.8,0.5-6.6,4-6.1,7.9l0.8,6.5c0.1,1.1-1,1.9-2,1.3l-3.3-1.9
				c-3.3-1.9-7.6-1-9.6,2.2c-2.2,3.4-1.1,7.9,2.4,9.9l3.5,2c1,0.6,0.9,2-0.2,2.4l-5.8,2.4c-3.5,1.5-5.4,5.4-4.1,9
				c1.4,3.8,5.6,5.6,9.3,4.1l17.8-7.4c0.4-0.2,0.8-0.1,1.2,0.1l14.7,8.5c1,0.6,0.9,2-0.2,2.4l-11.8,4.9c-3.6,1.5-5.3,5.6-3.8,9.2
				c1.5,3.6,5.6,5.3,9.2,3.8l23.6-9.8c0.4-0.2,0.8-0.1,1.2,0.1l4.5,2.6c0.5,0.3,0.8,1,0.6,1.6c-1.2,3.7-1.9,7.7-1.9,11.9
				s0.7,8.1,1.9,11.9c0.2,0.6-0.1,1.3-0.6,1.6l-4.5,2.6c-0.4,0.2-0.8,0.2-1.2,0.1l-23.6-9.8c-3.7-1.5-7.9,0.3-9.3,4.1
				c-1.3,3.6,0.6,7.5,4.1,9l11.6,4.8c1,0.4,1.1,1.8,0.2,2.4l-14.7,8.5c-0.4,0.2-0.8,0.2-1.2,0.1l-17.8-7.4c-3.6-1.5-7.7,0.2-9.2,3.8
				c-1.5,3.6,0.2,7.7,3.8,9.2l6,2.5c1,0.4,1.1,1.8,0.2,2.4l-3.4,1.9c-3.3,1.9-4.6,6-2.9,9.3c1.3,2.5,3.7,3.9,6.3,3.9
				c1.2,0,2.4-0.3,3.5-0.9l3.5-2c1-0.6,2.1,0.2,2,1.3l-0.8,6.5c-0.5,4.2,2.7,7.9,7,7.9c3.5,0,6.5-2.6,7-6.1l2.5-19.1
				c0.1-0.4,0.3-0.8,0.7-1l14.7-8.5c1-0.6,2.1,0.2,2,1.3l-1.7,12.7c-0.5,3.8,2.2,7.4,6.1,7.9c0.3,0,0.6,0.1,0.9,0.1
				c3.5,0,6.5-2.6,7-6.1l3.3-25.4c0.1-0.4,0.3-0.8,0.7-1l4.6-2.6c0.5-0.3,1.2-0.2,1.7,0.3c5.3,5.9,12.5,10.1,20.5,11.9
				c0.6,0.1,1.1,0.7,1.1,1.3v5.2c0,0.4-0.2,0.8-0.5,1.1l-20.2,15.4c-3.1,2.4-3.8,6.9-1.5,10c1.4,1.8,3.5,2.7,5.6,2.7
				c1.5,0,3-0.5,4.3-1.4l10.2-7.8c0.9-0.7,2.1,0,2.1,1.1v17c0,0.4-0.2,0.8-0.5,1.1l-15.2,11.6c-3,2.3-3.8,6.6-1.7,9.7
				c2.3,3.3,6.9,4,10.1,1.6l5.2-4c0.9-0.7,2.1,0,2.1,1.1v3.9c0,3.8,2.9,7,6.7,7.2c4,0.2,7.4-3,7.4-7v-4.1c0-1.1,1.3-1.7,2.1-1.1
				l5.2,4c3.2,2.4,7.8,1.7,10.1-1.6c2.1-3.1,1.3-7.4-1.7-9.7l-15.2-11.6c-0.3-0.3-0.5-0.6-0.5-1.1v-17c0-1.1,1.3-1.7,2.1-1.1
				l10.2,7.8c3.1,2.4,7.5,1.8,9.9-1.3c2.4-3.1,1.8-7.5-1.3-9.9l-20.3-15.6c-0.3-0.3-0.5-0.6-0.5-1.1v-5.2c0-0.6,0.5-1.2,1.1-1.3
				c8-1.7,15.2-6,20.5-11.9c0.4-0.5,1.1-0.6,1.7-0.3l4.6,2.6c0.4,0.2,0.6,0.6,0.7,1l3.3,25.4c0.5,3.5,3.5,6.1,7,6.1
				c0.3,0,0.6,0,0.9-0.1c3.8-0.5,6.6-4,6.1-7.9l-1.7-12.7c-0.1-1.1,1-1.9,2-1.3l14.7,8.5c0.4,0.2,0.6,0.6,0.7,1l2.5,19.1
				c0.5,3.5,3.5,6.1,7,6.1c4.3,0,7.5-3.7,7-7.9l-0.8-6.5c-0.1-1.1,1-1.9,2-1.3l3.5,2c3.5,2,7.9,0.7,9.8-2.9c1.7-3.4,0.4-7.5-2.9-9.4
				l-3.3-1.9c-1-0.6-0.9-2,0.2-2.4l5.8-2.4c3.5-1.5,5.4-5.4,4.1-8.9C1019.8,379.6,1015.5,377.7,1011.8,379.2L1011.8,379.2z M918,376
				c-13.5,0-24.5-11-24.5-24.5c0-13.5,11-24.5,24.5-24.5c13.5,0,24.5,11,24.5,24.5S931.5,376,918,376z"/>
			<path class="st73" d="M918,457.5v-61.6c0-3-1.7-5.8-4.4-7.3c-7.9-4.2-23.6-15.5-23.6-37.1c0-21.5,15.5-31.8,23.4-35.7
				c2.8-1.4,4.6-4.2,4.6-7.4v-61.5c0-4.7,2.1-7.2,4.2-8.5c-1.1-0.8-2.4-1.4-3.8-1.4c-4-0.2-7.4,3-7.4,7v4.1c0,1.1-1.3,1.7-2.1,1.1
				l-5-3.8c-3-2.3-7.4-2-9.8,0.9c-2.6,3.1-2.1,7.7,1.1,10.1l15.3,11.7c0.3,0.3,0.5,0.6,0.5,1.1v17c0,1.1-1.3,1.7-2.1,1.1l-10.2-7.8
				c-3.2-2.4-7.8-1.7-10.1,1.6c-2.2,3.1-1.3,7.4,1.7,9.7l20.2,15.4c0.3,0.3,0.5,0.6,0.5,1.1v5.2c0,0.6-0.5,1.2-1.1,1.3
				c-8,1.7-15.2,6-20.5,11.9c-0.4,0.5-1.1,0.6-1.7,0.3l-4.6-2.6c-0.4-0.2-0.6-0.6-0.7-1l-3.3-25.4c-0.5-3.8-4-6.6-7.9-6.1
				c-3.8,0.5-6.6,4-6.1,7.9l1.7,12.7c0.1,1.1-1,1.9-2,1.3l-14.7-8.5c-0.4-0.2-0.6-0.6-0.7-1l-2.5-19.1c-0.5-3.8-4-6.6-7.9-6.1
				c-3.8,0.5-6.6,4-6.1,7.9l0.8,6.5c0.1,1.1-1,1.9-2,1.3l-3.3-1.9c-3.3-1.9-7.6-1-9.6,2.2c-2.2,3.4-1.1,7.9,2.4,9.9l3.5,2
				c1,0.6,0.9,2-0.2,2.4l-5.8,2.4c-3.5,1.5-5.4,5.4-4.1,9c1.4,3.8,5.6,5.6,9.3,4.1l17.8-7.4c0.4-0.2,0.8-0.1,1.2,0.1l14.7,8.5
				c1,0.6,0.9,2-0.2,2.4l-11.8,4.9c-3.6,1.5-5.3,5.6-3.8,9.2c1.5,3.6,5.6,5.3,9.2,3.8l23.6-9.8c0.4-0.2,0.8-0.1,1.2,0.1l4.5,2.6
				c0.5,0.3,0.8,1,0.6,1.6c-1.2,3.7-1.9,7.7-1.9,11.9c0,4.1,0.7,8.1,1.9,11.9c0.2,0.6-0.1,1.3-0.6,1.6l-4.5,2.6
				c-0.4,0.2-0.8,0.2-1.2,0.1l-23.6-9.8c-3.7-1.5-7.9,0.3-9.3,4.1c-1.3,3.6,0.6,7.5,4.1,9l11.6,4.8c1,0.4,1.1,1.8,0.2,2.4l-14.7,8.5
				c-0.4,0.2-0.8,0.2-1.2,0.1l-17.8-7.4c-3.6-1.5-7.7,0.2-9.2,3.8c-1.5,3.6,0.2,7.7,3.8,9.2l6,2.5c1,0.4,1.1,1.8,0.2,2.4l-3.4,1.9
				c-3.3,1.9-4.6,6-2.9,9.3c1.3,2.5,3.7,3.9,6.3,3.9c1.2,0,2.4-0.3,3.5-0.9l3.5-2c1-0.6,2.1,0.2,2,1.3l-0.8,6.5
				c-0.5,4.2,2.7,7.9,7,7.9c3.5,0,6.5-2.6,7-6.1l2.5-19.1c0.1-0.4,0.3-0.8,0.7-1l14.7-8.5c1-0.6,2.1,0.2,2,1.3l-1.7,12.7
				c-0.5,3.8,2.2,7.4,6.1,7.9c0.3,0,0.6,0.1,0.9,0.1c3.5,0,6.5-2.6,7-6.1l3.3-25.4c0.1-0.4,0.3-0.8,0.7-1l4.6-2.6
				c0.5-0.3,1.2-0.2,1.7,0.3c5.3,5.9,12.5,10.1,20.5,11.9c0.6,0.1,1.1,0.7,1.1,1.3v5.2c0,0.4-0.2,0.8-0.5,1.1l-20.2,15.4
				c-3.1,2.4-3.8,6.9-1.5,10c1.4,1.8,3.5,2.7,5.6,2.7c1.5,0,3-0.5,4.3-1.4l10.2-7.8c0.9-0.7,2.1,0,2.1,1.1v17c0,0.4-0.2,0.8-0.5,1.1
				l-15.2,11.6c-3,2.3-3.8,6.6-1.7,9.7c2.3,3.3,6.9,4,10.1,1.6l5.2-4c0.9-0.7,2.1,0,2.1,1.1v3.9c0,3.8,2.9,7,6.6,7.2
				c1.9,0.1,3.6-0.5,4.9-1.6C918.4,462.1,918,457.5,918,457.5L918,457.5z"/>
		</g>
	</g>
	<g id="_x3C_Grupo_3__x3E_" class="st2">
		<g>
			<path class="st72" d="M861.8,596.6l-9.6,4c-0.2,0.1-0.4,0.1-0.6,0l-7.9-4.6c-0.5-0.3-0.5-1.1,0.1-1.3l6.3-2.6
				c1.9-0.8,2.9-2.9,2.2-4.8c-0.7-2-3-3-5-2.2l-12.7,5.3c-0.2,0.1-0.4,0.1-0.6,0l-2.4-1.4c-0.3-0.2-0.4-0.5-0.3-0.8
				c0.7-2,1-4.2,1-6.4c0-2.4-0.4-4.8-1.2-6.9l3.3-1.9l13.1,5.4c1.9,0.8,4.1-0.1,4.9-2c0.8-1.9-0.1-4.1-2-4.9l-7.7-3.2l9.5-5.5
				l9.8,4.1c1.9,0.8,4.1,0,5-1.8c0.9-2,0-4.3-2-5.1l-4.6-1.9l3.1-1.8c1.8-1,2.5-3.3,1.6-5.1c-1-1.9-3.4-2.6-5.3-1.5l-3.2,1.8
				l0.6-4.9c0.3-2.1-1.2-4-3.3-4.2c-2.1-0.3-4,1.2-4.2,3.3L848,556l-9.5,5.5l1.1-8.3c0.3-2.1-1.2-4-3.3-4.2c-2.1-0.3-4,1.2-4.2,3.3
				l-1.8,14l-3.3,1.9c-2.9-3.4-6.9-5.9-11.4-6.8c-0.3-0.1-0.6-0.4-0.6-0.7v-2.8c0-0.2,0.1-0.4,0.3-0.6l10.9-8.3
				c1.6-1.2,2.1-3.5,0.9-5.2c-1.2-1.8-3.7-2.2-5.4-0.9l-5.5,4.2c-0.5,0.4-1.2,0-1.2-0.6v-9.2c0-0.2,0.1-0.4,0.3-0.6l8.2-6.3
				c1.6-1.2,2.1-3.5,0.9-5.2c-1.2-1.8-3.7-2.2-5.4-0.9l-2.8,2.1c-0.5,0.4-1.2,0-1.2-0.6v-2.1c0-2-1.6-3.8-3.6-3.9
				c-2.2-0.1-4,1.6-4,3.8v2.2c0,0.6-0.7,0.9-1.2,0.6l-2.7-2.1c-1.6-1.2-4-1.1-5.3,0.5c-1.4,1.7-1.1,4.1,0.6,5.4l8.3,6.3
				c0.2,0.1,0.3,0.3,0.3,0.6v9.2c0,0.6-0.7,0.9-1.2,0.6l-5.5-4.2c-1.7-1.3-4.2-0.9-5.4,0.9c-1.2,1.7-0.7,4,0.9,5.2l10.9,8.3
				c0.2,0.1,0.3,0.3,0.3,0.6v2.8c0,0.3-0.2,0.6-0.6,0.7c-4.3,0.9-8.2,3.2-11,6.4c-0.2,0.3-0.6,0.3-0.9,0.1l-2.5-1.4
				c-0.2-0.1-0.3-0.3-0.4-0.5l-1.8-13.7c-0.3-2.1-2.2-3.5-4.2-3.3c-2.1,0.3-3.5,2.2-3.3,4.2l0.9,6.8c0.1,0.6-0.6,1-1.1,0.7l-7.9-4.6
				c-0.2-0.1-0.3-0.3-0.4-0.5l-1.3-10.3c-0.3-2.1-2.2-3.5-4.2-3.3c-2.1,0.3-3.5,2.2-3.3,4.2l0.5,3.5c0.1,0.6-0.6,1-1.1,0.7l-1.8-1
				c-1.8-1-4.1-0.5-5.2,1.2c-1.2,1.8-0.6,4.3,1.3,5.3l1.9,1.1c0.5,0.3,0.5,1.1-0.1,1.3l-3.1,1.3c-1.9,0.8-2.9,2.9-2.2,4.8
				c0.7,2,3,3,5,2.2l9.6-4c0.2-0.1,0.4-0.1,0.6,0l7.9,4.6c0.5,0.3,0.5,1.1-0.1,1.3l-6.4,2.6c-1.9,0.8-2.8,3-2,4.9
				c0.8,1.9,3,2.8,4.9,2l12.7-5.3c0.2-0.1,0.4-0.1,0.6,0l2.4,1.4c0.3,0.2,0.4,0.5,0.3,0.8c-0.7,2-1,4.2-1,6.4s0.4,4.4,1,6.4
				c0.1,0.3,0,0.7-0.3,0.8l-2.4,1.4c-0.2,0.1-0.4,0.1-0.6,0l-12.7-5.3c-2-0.8-4.3,0.2-5,2.2c-0.7,1.9,0.3,4,2.2,4.8l6.3,2.6
				c0.6,0.2,0.6,1,0.1,1.3l-7.9,4.6c-0.2,0.1-0.4,0.1-0.6,0l-9.6-4c-1.9-0.8-4.1,0.1-4.9,2c-0.8,1.9,0.1,4.1,2,4.9l3.2,1.3
				c0.6,0.2,0.6,1,0.1,1.3l-1.8,1c-1.8,1-2.5,3.2-1.6,5c0.7,1.3,2,2.1,3.4,2.1c0.6,0,1.3-0.2,1.9-0.5l1.9-1.1
				c0.5-0.3,1.2,0.1,1.1,0.7l-0.5,3.5c-0.3,2.3,1.5,4.3,3.8,4.3c1.9,0,3.5-1.4,3.7-3.3l1.3-10.3c0-0.2,0.2-0.4,0.4-0.5l7.9-4.6
				c0.5-0.3,1.2,0.1,1.1,0.7l-0.9,6.8c-0.3,2.1,1.2,4,3.3,4.2c0.2,0,0.3,0,0.5,0c1.9,0,3.5-1.4,3.7-3.3l1.8-13.7
				c0-0.2,0.2-0.4,0.4-0.5l2.5-1.4c0.3-0.2,0.7-0.1,0.9,0.1c2.9,3.2,6.7,5.5,11,6.4c0.3,0.1,0.6,0.4,0.6,0.7v2.8
				c0,0.2-0.1,0.4-0.3,0.6l-10.9,8.3c-1.7,1.3-2.1,3.7-0.8,5.4c0.7,1,1.9,1.5,3,1.5c0.8,0,1.6-0.3,2.3-0.8l5.5-4.2
				c0.5-0.4,1.2,0,1.2,0.6v9.2c0,0.2-0.1,0.4-0.3,0.6l-8.2,6.3c-1.6,1.2-2.1,3.5-0.9,5.2c1.2,1.8,3.7,2.2,5.4,0.9l2.8-2.1
				c0.5-0.4,1.2,0,1.2,0.6v2.1c0,2,1.6,3.8,3.6,3.9c2.2,0.1,4-1.6,4-3.8v-2.2c0-0.6,0.7-0.9,1.2-0.6l2.8,2.1
				c1.7,1.3,4.2,0.9,5.4-0.9c1.2-1.7,0.7-4-0.9-5.2l-8.2-6.3c-0.2-0.1-0.3-0.3-0.3-0.6v-9.2c0-0.6,0.7-0.9,1.2-0.6l5.5,4.2
				c1.7,1.3,4,1,5.3-0.7c1.3-1.7,1-4-0.7-5.3l-11-8.4c-0.2-0.1-0.3-0.3-0.3-0.6v-2.8c0-0.3,0.2-0.6,0.6-0.7c4.3-0.9,8.2-3.2,11-6.4
				c0.2-0.3,0.6-0.3,0.9-0.1l2.5,1.4c0.2,0.1,0.3,0.3,0.4,0.5l1.8,13.7c0.2,1.9,1.9,3.3,3.7,3.3c0.2,0,0.3,0,0.5,0
				c2.1-0.3,3.5-2.2,3.3-4.2l-0.9-6.8c-0.1-0.6,0.6-1,1.1-0.7l7.9,4.6c0.2,0.1,0.3,0.3,0.4,0.5l1.3,10.3c0.2,1.9,1.9,3.3,3.7,3.3
				c2.3,0,4.1-2,3.8-4.3l-0.5-3.5c-0.1-0.6,0.6-1,1.1-0.7l1.9,1.1c1.9,1.1,4.3,0.4,5.3-1.5c0.9-1.8,0.2-4-1.6-5.1l-1.8-1
				c-0.5-0.3-0.5-1.1,0.1-1.3l3.1-1.3c1.9-0.8,2.9-2.9,2.2-4.8C866,596.8,863.7,595.8,861.8,596.6L861.8,596.6z M811.2,594.9
				c-7.3,0-13.2-5.9-13.2-13.2c0-7.3,5.9-13.2,13.2-13.2c7.3,0,13.2,5.9,13.2,13.2S818.5,594.9,811.2,594.9z"/>
			<path class="st73" d="M811.2,638.7v-33.2c0-1.6-0.9-3.1-2.4-3.9c-4.2-2.3-12.7-8.3-12.7-20c0-11.6,8.3-17.1,12.6-19.2
				c1.5-0.7,2.5-2.3,2.5-4v-33.1c0-2.5,1.1-3.9,2.3-4.6c-0.6-0.4-1.3-0.7-2.1-0.8c-2.2-0.1-4,1.6-4,3.8v2.2c0,0.6-0.7,0.9-1.2,0.6
				l-2.7-2.1c-1.6-1.2-4-1.1-5.3,0.5c-1.4,1.7-1.1,4.1,0.6,5.4l8.3,6.3c0.2,0.1,0.3,0.3,0.3,0.6v9.2c0,0.6-0.7,0.9-1.2,0.6l-5.5-4.2
				c-1.7-1.3-4.2-0.9-5.4,0.9c-1.2,1.7-0.7,4,0.9,5.2l10.9,8.3c0.2,0.1,0.3,0.3,0.3,0.6v2.8c0,0.3-0.2,0.6-0.6,0.7
				c-4.3,0.9-8.2,3.2-11,6.4c-0.2,0.3-0.6,0.3-0.9,0.1l-2.5-1.4c-0.2-0.1-0.3-0.3-0.4-0.5l-1.8-13.7c-0.3-2.1-2.2-3.5-4.2-3.3
				c-2.1,0.3-3.5,2.2-3.3,4.2l0.9,6.8c0.1,0.6-0.6,1-1.1,0.7l-7.9-4.6c-0.2-0.1-0.3-0.3-0.4-0.5l-1.3-10.3c-0.3-2.1-2.2-3.5-4.2-3.3
				c-2.1,0.3-3.5,2.2-3.3,4.2l0.5,3.5c0.1,0.6-0.6,1-1.1,0.7l-1.8-1c-1.8-1-4.1-0.5-5.2,1.2c-1.2,1.8-0.6,4.3,1.3,5.3l1.9,1.1
				c0.5,0.3,0.5,1.1-0.1,1.3l-3.1,1.3c-1.9,0.8-2.9,2.9-2.2,4.8c0.7,2,3,3,5,2.2l9.6-4c0.2-0.1,0.4-0.1,0.6,0l7.9,4.6
				c0.5,0.3,0.5,1.1-0.1,1.3l-6.4,2.6c-1.9,0.8-2.8,3-2,4.9c0.8,1.9,3,2.8,4.9,2l12.7-5.3c0.2-0.1,0.4-0.1,0.6,0l2.4,1.4
				c0.3,0.2,0.4,0.5,0.3,0.8c-0.7,2-1,4.2-1,6.4c0,2.2,0.4,4.4,1,6.4c0.1,0.3,0,0.7-0.3,0.8l-2.4,1.4c-0.2,0.1-0.4,0.1-0.6,0
				l-12.7-5.3c-2-0.8-4.3,0.2-5,2.2c-0.7,1.9,0.3,4,2.2,4.8l6.3,2.6c0.6,0.2,0.6,1,0.1,1.3l-7.9,4.6c-0.2,0.1-0.4,0.1-0.6,0l-9.6-4
				c-1.9-0.8-4.1,0.1-4.9,2c-0.8,1.9,0.1,4.1,2,4.9l3.2,1.3c0.6,0.2,0.6,1,0.1,1.3l-1.8,1c-1.8,1-2.5,3.2-1.6,5
				c0.7,1.3,2,2.1,3.4,2.1c0.6,0,1.3-0.2,1.9-0.5l1.9-1.1c0.5-0.3,1.2,0.1,1.1,0.7l-0.5,3.5c-0.3,2.3,1.5,4.3,3.8,4.3
				c1.9,0,3.5-1.4,3.7-3.3l1.3-10.3c0-0.2,0.2-0.4,0.4-0.5l7.9-4.6c0.5-0.3,1.2,0.1,1.1,0.7l-0.9,6.8c-0.3,2.1,1.2,4,3.3,4.2
				c0.2,0,0.3,0,0.5,0c1.9,0,3.5-1.4,3.7-3.3l1.8-13.7c0-0.2,0.2-0.4,0.4-0.5l2.5-1.4c0.3-0.2,0.7-0.1,0.9,0.1
				c2.9,3.2,6.7,5.5,11,6.4c0.3,0.1,0.6,0.4,0.6,0.7v2.8c0,0.2-0.1,0.4-0.3,0.6l-10.9,8.3c-1.7,1.3-2.1,3.7-0.8,5.4
				c0.7,1,1.9,1.5,3,1.5c0.8,0,1.6-0.3,2.3-0.8l5.5-4.2c0.5-0.4,1.2,0,1.2,0.6v9.2c0,0.2-0.1,0.4-0.3,0.6l-8.2,6.3
				c-1.6,1.2-2.1,3.5-0.9,5.2c1.2,1.8,3.7,2.2,5.4,0.9l2.8-2.1c0.5-0.4,1.2,0,1.2,0.6v2.1c0,2,1.6,3.8,3.6,3.9
				c1,0.1,1.9-0.3,2.6-0.9C811.4,641.2,811.2,638.7,811.2,638.7L811.2,638.7z"/>
		</g>
	</g>
	<g id="_x3C_Grupo_4_x3E_" class="st2">
		<g>
			<path class="st72" d="M1210.8,595.1l-4.9,2c-0.1,0-0.2,0-0.3,0l-4.1-2.3c-0.3-0.2-0.2-0.5,0-0.7l3.2-1.3c1-0.4,1.5-1.5,1.1-2.5
				c-0.4-1-1.5-1.6-2.6-1.1l-6.5,2.7c-0.1,0-0.2,0-0.3,0l-1.2-0.7c-0.2-0.1-0.2-0.3-0.2-0.4c0.3-1,0.5-2.1,0.5-3.3
				c0-1.2-0.2-2.4-0.6-3.5l1.7-1l6.7,2.8c1,0.4,2.1-0.1,2.5-1c0.4-1-0.1-2.1-1-2.5l-3.9-1.6l4.9-2.8l5,2.1c1,0.4,2.1,0,2.5-0.9
				c0.5-1,0-2.2-1-2.6l-2.3-1l1.6-0.9c0.9-0.5,1.3-1.7,0.8-2.6c-0.5-1-1.7-1.3-2.7-0.8l-1.6,0.9l0.3-2.5c0.1-1.1-0.6-2-1.7-2.2
				c-1.1-0.1-2,0.6-2.2,1.7l-0.7,5.4l-4.9,2.8l0.6-4.2c0.1-1.1-0.6-2-1.7-2.2c-1.1-0.1-2,0.6-2.2,1.7l-0.9,7.2l-1.7,1
				c-1.5-1.7-3.5-3-5.8-3.5c-0.2,0-0.3-0.2-0.3-0.4v-1.4c0-0.1,0.1-0.2,0.1-0.3l5.6-4.2c0.8-0.6,1.1-1.8,0.5-2.7
				c-0.6-0.9-1.9-1.1-2.8-0.4l-2.8,2.1c-0.2,0.2-0.6,0-0.6-0.3v-4.7c0-0.1,0.1-0.2,0.1-0.3l4.2-3.2c0.8-0.6,1.1-1.8,0.5-2.7
				c-0.6-0.9-1.9-1.1-2.8-0.4l-1.4,1.1c-0.2,0.2-0.6,0-0.6-0.3V558c0-1-0.8-1.9-1.8-2c-1.1-0.1-2,0.8-2,1.9v1.1
				c0,0.3-0.3,0.5-0.6,0.3l-1.4-1.1c-0.8-0.6-2-0.5-2.7,0.3c-0.7,0.9-0.6,2.1,0.3,2.8l4.2,3.2c0.1,0.1,0.1,0.2,0.1,0.3v4.7
				c0,0.3-0.3,0.5-0.6,0.3l-2.8-2.1c-0.9-0.7-2.1-0.5-2.8,0.4c-0.6,0.9-0.4,2,0.5,2.7l5.6,4.2c0.1,0.1,0.1,0.2,0.1,0.3v1.4
				c0,0.2-0.1,0.3-0.3,0.4c-2.2,0.5-4.2,1.6-5.6,3.3c-0.1,0.1-0.3,0.2-0.5,0.1l-1.3-0.7c-0.1-0.1-0.2-0.2-0.2-0.3l-0.9-7
				c-0.1-1.1-1.1-1.8-2.2-1.7c-1.1,0.1-1.8,1.1-1.7,2.2l0.5,3.5c0,0.3-0.3,0.5-0.5,0.4l-4.1-2.3c-0.1-0.1-0.2-0.2-0.2-0.3l-0.7-5.3
				c-0.1-1.1-1.1-1.8-2.2-1.7c-1.1,0.1-1.8,1.1-1.7,2.2l0.2,1.8c0,0.3-0.3,0.5-0.5,0.4l-0.9-0.5c-0.9-0.5-2.1-0.3-2.6,0.6
				c-0.6,0.9-0.3,2.2,0.7,2.7l1,0.6c0.3,0.2,0.2,0.5,0,0.7l-1.6,0.7c-1,0.4-1.5,1.5-1.1,2.5c0.4,1,1.5,1.5,2.6,1.1l4.9-2
				c0.1,0,0.2,0,0.3,0l4.1,2.3c0.3,0.2,0.2,0.5,0,0.7l-3.3,1.4c-1,0.4-1.5,1.5-1,2.5c0.4,1,1.5,1.5,2.5,1l6.5-2.7c0.1,0,0.2,0,0.3,0
				l1.2,0.7c0.2,0.1,0.2,0.3,0.2,0.4c-0.3,1-0.5,2.1-0.5,3.3s0.2,2.2,0.5,3.3c0.1,0.2,0,0.3-0.2,0.4l-1.2,0.7
				c-0.1,0.1-0.2,0.1-0.3,0l-6.5-2.7c-1-0.4-2.2,0.1-2.6,1.1c-0.4,1,0.2,2.1,1.1,2.5l3.2,1.3c0.3,0.1,0.3,0.5,0,0.7l-4.1,2.3
				c-0.1,0.1-0.2,0.1-0.3,0l-4.9-2c-1-0.4-2.1,0.1-2.5,1c-0.4,1,0.1,2.1,1,2.5l1.7,0.7c0.3,0.1,0.3,0.5,0,0.7l-0.9,0.5
				c-0.9,0.5-1.3,1.6-0.8,2.6c0.3,0.7,1,1.1,1.7,1.1c0.3,0,0.7-0.1,1-0.3l1-0.6c0.3-0.2,0.6,0.1,0.5,0.4l-0.2,1.8
				c-0.2,1.2,0.7,2.2,1.9,2.2c1,0,1.8-0.7,1.9-1.7l0.7-5.3c0-0.1,0.1-0.2,0.2-0.3l4.1-2.3c0.3-0.2,0.6,0.1,0.5,0.4l-0.5,3.5
				c-0.1,1.1,0.6,2,1.7,2.2c0.1,0,0.2,0,0.3,0c1,0,1.8-0.7,1.9-1.7l0.9-7c0-0.1,0.1-0.2,0.2-0.3l1.3-0.7c0.2-0.1,0.3-0.1,0.5,0.1
				c1.5,1.6,3.4,2.8,5.6,3.3c0.2,0,0.3,0.2,0.3,0.4v1.4c0,0.1-0.1,0.2-0.1,0.3l-5.6,4.2c-0.8,0.6-1.1,1.9-0.4,2.7
				c0.4,0.5,1,0.8,1.5,0.8c0.4,0,0.8-0.1,1.2-0.4l2.8-2.1c0.2-0.2,0.6,0,0.6,0.3v4.7c0,0.1-0.1,0.2-0.1,0.3l-4.2,3.2
				c-0.8,0.6-1.1,1.8-0.5,2.7c0.6,0.9,1.9,1.1,2.8,0.4l1.4-1.1c0.2-0.2,0.6,0,0.6,0.3v1.1c0,1,0.8,1.9,1.8,2c1.1,0.1,2-0.8,2-1.9
				v-1.1c0-0.3,0.3-0.5,0.6-0.3l1.4,1.1c0.9,0.7,2.1,0.5,2.8-0.4c0.6-0.9,0.4-2-0.5-2.7l-4.2-3.2c-0.1-0.1-0.1-0.2-0.1-0.3v-4.7
				c0-0.3,0.3-0.5,0.6-0.3l2.8,2.1c0.8,0.6,2.1,0.5,2.7-0.4c0.6-0.8,0.5-2.1-0.4-2.7l-5.6-4.3c-0.1-0.1-0.1-0.2-0.1-0.3v-1.4
				c0-0.2,0.1-0.3,0.3-0.4c2.2-0.5,4.2-1.6,5.6-3.3c0.1-0.1,0.3-0.2,0.5-0.1l1.3,0.7c0.1,0.1,0.2,0.2,0.2,0.3l0.9,7
				c0.1,1,1,1.7,1.9,1.7c0.1,0,0.2,0,0.3,0c1.1-0.1,1.8-1.1,1.7-2.2l-0.5-3.5c0-0.3,0.3-0.5,0.5-0.4l4.1,2.3
				c0.1,0.1,0.2,0.2,0.2,0.3l0.7,5.3c0.1,1,1,1.7,1.9,1.7c1.2,0,2.1-1,1.9-2.2l-0.2-1.8c0-0.3,0.3-0.5,0.5-0.4l1,0.6
				c1,0.5,2.2,0.2,2.7-0.8c0.5-0.9,0.1-2.1-0.8-2.6l-0.9-0.5c-0.3-0.2-0.2-0.5,0-0.7l1.6-0.7c1-0.4,1.5-1.5,1.1-2.5
				C1212.9,595.2,1211.8,594.7,1210.8,595.1L1210.8,595.1z M1185,594.2c-3.7,0-6.7-3-6.7-6.7c0-3.7,3-6.7,6.7-6.7
				c3.7,0,6.7,3,6.7,6.7C1191.7,591.2,1188.7,594.2,1185,594.2z"/>
			<path class="st73" d="M1185,616.7v-16.9c0-0.8-0.5-1.6-1.2-2c-2.2-1.2-6.5-4.3-6.5-10.2c0-5.9,4.3-8.7,6.4-9.8
				c0.8-0.4,1.3-1.2,1.3-2v-16.9c0-1.3,0.6-2,1.2-2.3c-0.3-0.2-0.7-0.4-1.1-0.4c-1.1-0.1-2,0.8-2,1.9v1.1c0,0.3-0.3,0.5-0.6,0.3
				l-1.4-1.1c-0.8-0.6-2-0.5-2.7,0.3c-0.7,0.9-0.6,2.1,0.3,2.8l4.2,3.2c0.1,0.1,0.1,0.2,0.1,0.3v4.7c0,0.3-0.3,0.5-0.6,0.3l-2.8-2.1
				c-0.9-0.7-2.1-0.5-2.8,0.4c-0.6,0.9-0.4,2,0.5,2.7l5.6,4.2c0.1,0.1,0.1,0.2,0.1,0.3v1.4c0,0.2-0.1,0.3-0.3,0.4
				c-2.2,0.5-4.2,1.6-5.6,3.3c-0.1,0.1-0.3,0.2-0.5,0.1l-1.3-0.7c-0.1-0.1-0.2-0.2-0.2-0.3l-0.9-7c-0.1-1.1-1.1-1.8-2.2-1.7
				c-1.1,0.1-1.8,1.1-1.7,2.2l0.5,3.5c0,0.3-0.3,0.5-0.5,0.4l-4.1-2.3c-0.1-0.1-0.2-0.2-0.2-0.3l-0.7-5.3c-0.1-1.1-1.1-1.8-2.2-1.7
				c-1.1,0.1-1.8,1.1-1.7,2.2l0.2,1.8c0,0.3-0.3,0.5-0.5,0.4l-0.9-0.5c-0.9-0.5-2.1-0.3-2.6,0.6c-0.6,0.9-0.3,2.2,0.7,2.7l1,0.6
				c0.3,0.2,0.2,0.5,0,0.7l-1.6,0.7c-1,0.4-1.5,1.5-1.1,2.5c0.4,1,1.5,1.5,2.6,1.1l4.9-2c0.1,0,0.2,0,0.3,0l4.1,2.3
				c0.3,0.2,0.2,0.5,0,0.7l-3.3,1.4c-1,0.4-1.5,1.5-1,2.5c0.4,1,1.5,1.5,2.5,1l6.5-2.7c0.1,0,0.2,0,0.3,0l1.2,0.7
				c0.2,0.1,0.2,0.3,0.2,0.4c-0.3,1-0.5,2.1-0.5,3.3c0,1.1,0.2,2.2,0.5,3.3c0.1,0.2,0,0.3-0.2,0.4l-1.2,0.7c-0.1,0.1-0.2,0.1-0.3,0
				l-6.5-2.7c-1-0.4-2.2,0.1-2.6,1.1c-0.4,1,0.2,2.1,1.1,2.5l3.2,1.3c0.3,0.1,0.3,0.5,0,0.7l-4.1,2.3c-0.1,0.1-0.2,0.1-0.3,0l-4.9-2
				c-1-0.4-2.1,0.1-2.5,1c-0.4,1,0.1,2.1,1,2.5l1.7,0.7c0.3,0.1,0.3,0.5,0,0.7l-0.9,0.5c-0.9,0.5-1.3,1.6-0.8,2.6
				c0.3,0.7,1,1.1,1.7,1.1c0.3,0,0.7-0.1,1-0.3l1-0.6c0.3-0.2,0.6,0.1,0.5,0.4l-0.2,1.8c-0.2,1.2,0.7,2.2,1.9,2.2
				c1,0,1.8-0.7,1.9-1.7l0.7-5.3c0-0.1,0.1-0.2,0.2-0.3l4.1-2.3c0.3-0.2,0.6,0.1,0.5,0.4l-0.5,3.5c-0.1,1.1,0.6,2,1.7,2.2
				c0.1,0,0.2,0,0.3,0c1,0,1.8-0.7,1.9-1.7l0.9-7c0-0.1,0.1-0.2,0.2-0.3l1.3-0.7c0.2-0.1,0.3-0.1,0.5,0.1c1.5,1.6,3.4,2.8,5.6,3.3
				c0.2,0,0.3,0.2,0.3,0.4v1.4c0,0.1-0.1,0.2-0.1,0.3l-5.6,4.2c-0.8,0.6-1.1,1.9-0.4,2.7c0.4,0.5,1,0.8,1.5,0.8
				c0.4,0,0.8-0.1,1.2-0.4l2.8-2.1c0.2-0.2,0.6,0,0.6,0.3v4.7c0,0.1-0.1,0.2-0.1,0.3l-4.2,3.2c-0.8,0.6-1.1,1.8-0.5,2.7
				c0.6,0.9,1.9,1.1,2.8,0.4l1.4-1.1c0.2-0.2,0.6,0,0.6,0.3v1.1c0,1,0.8,1.9,1.8,2c0.5,0,1-0.1,1.3-0.4
				C1185.1,617.9,1185,616.7,1185,616.7L1185,616.7z"/>
		</g>
	</g>
</g>
<g id="Kael_-_Prime_One" class="st0">
	<path id="card_template_2_" class="st74" d="M1433.3,741.5H64.3c-6.6,0-12-5.4-12-12V20c0-6.6,5.4-12,12-12h1369.1
		c6.6,0,12,5.4,12,12v709.5C1445.3,736.1,1439.9,741.5,1433.3,741.5z"/>
	<g id="wifi_2_">
		<linearGradient id="SVGID_27_" gradientUnits="userSpaceOnUse" x1="1030.2054" y1="174.6119" x2="1056.3462" y2="174.6119">
			<stop  offset="0.257" style="stop-color:#42007F"/>
			<stop  offset="0.3421" style="stop-color:#4B0780"/>
			<stop  offset="0.4836" style="stop-color:#651982"/>
			<stop  offset="0.6641" style="stop-color:#8E3785"/>
			<stop  offset="0.8744" style="stop-color:#C75F8A"/>
			<stop  offset="0.9944" style="stop-color:#EB798D"/>
		</linearGradient>
		<path class="st75" d="M1051.5,222c-0.9-0.5-1.9-0.8-2.6-1.5c-7.1-7.2-12.2-15.6-15.4-25.2c-2.6-7.7-3.6-15.6-3.2-23.7
			c0.6-12.8,4.6-24.5,12.2-34.8c2.1-2.9,4.6-5.6,7.1-8.3c1.6-1.8,4.1-1.8,5.7-0.2c1.6,1.6,1.5,4-0.2,5.7
			c-7.6,7.6-12.9,16.7-15.3,27.2c-3.6,15.1-1.4,29.5,6.4,42.9c2.3,4,5.1,7.5,8.3,10.8c1.2,1.3,1.6,3,0.8,4.5
			c-0.6,1.4-2.1,2.3-3.6,2.3C1051.6,221.9,1051.6,221.9,1051.5,222z"/>
		<linearGradient id="SVGID_28_" gradientUnits="userSpaceOnUse" x1="1048.2642" y1="174.6282" x2="1069.0293" y2="174.6282">
			<stop  offset="0.257" style="stop-color:#42007F"/>
			<stop  offset="0.3421" style="stop-color:#4B0780"/>
			<stop  offset="0.4836" style="stop-color:#651982"/>
			<stop  offset="0.6641" style="stop-color:#8E3785"/>
			<stop  offset="0.8744" style="stop-color:#C75F8A"/>
			<stop  offset="0.9944" style="stop-color:#EB798D"/>
		</linearGradient>
		<path class="st76" d="M1048.3,173.7c0.1-11.4,4.6-22.8,13.9-32.2c1.7-1.7,4.1-1.8,5.7-0.2c1.6,1.6,1.5,4-0.2,5.7
			c-5.7,5.7-9.5,12.5-10.9,20.5c-2.3,13.1,1.1,24.7,10.1,34.5c1.1,1.2,1.8,2.5,1.5,4.1c-0.3,1.5-1.3,2.5-2.8,2.9
			c-1.4,0.4-2.8,0-3.8-1c-4.9-4.9-8.5-10.6-10.8-17.1C1049.3,185.9,1048.4,180.8,1048.3,173.7z"/>
		<linearGradient id="SVGID_29_" gradientUnits="userSpaceOnUse" x1="1066.0074" y1="174.7074" x2="1081.4281" y2="174.7074">
			<stop  offset="0.257" style="stop-color:#42007F"/>
			<stop  offset="0.3421" style="stop-color:#4B0780"/>
			<stop  offset="0.4836" style="stop-color:#651982"/>
			<stop  offset="0.6641" style="stop-color:#8E3785"/>
			<stop  offset="0.8744" style="stop-color:#C75F8A"/>
			<stop  offset="0.9944" style="stop-color:#EB798D"/>
		</linearGradient>
		<path class="st77" d="M1066,175.7c0.3-9.1,3.1-15.9,8.7-21.5c1.3-1.4,3.1-1.6,4.7-0.8c1.5,0.8,2.5,2.5,2,4.2
			c-0.3,0.9-0.9,1.8-1.5,2.5c-3.1,3.3-5,7.1-5.6,11.5c-1,6.8,0.9,12.8,5.6,17.9c1.4,1.6,1.8,3.4,0.8,5c-1.4,2.3-4.3,2.6-6.2,0.7
			c-3.6-3.7-6.2-8.1-7.3-13.1C1066.4,179.6,1066.2,177.1,1066,175.7z"/>
	</g>
	<linearGradient id="SVGID_30_" gradientUnits="userSpaceOnUse" x1="589.5418" y1="8" x2="589.5418" y2="8">
		<stop  offset="0.257" style="stop-color:#42007F"/>
		<stop  offset="0.3421" style="stop-color:#4B0780"/>
		<stop  offset="0.4836" style="stop-color:#651982"/>
		<stop  offset="0.6641" style="stop-color:#8E3785"/>
		<stop  offset="0.8744" style="stop-color:#C75F8A"/>
		<stop  offset="0.9944" style="stop-color:#EB798D"/>
	</linearGradient>
	<path class="st78" d="M589.5,8"/>
	<g id="logotype_2_" class="st2">
		<linearGradient id="SVGID_31_" gradientUnits="userSpaceOnUse" x1="665.8492" y1="441.0385" x2="921.8506" y2="441.0385">
			<stop  offset="0.257" style="stop-color:#C2C2C2"/>
			<stop  offset="0.9944" style="stop-color:#C2C2C2"/>
		</linearGradient>
		<path class="st79" d="M742.3,306.5l179.5,269h-153c0,0-46.2-69.2-103-154.4L742.3,306.5z"/>
		<polyline class="st11" points="691.3,392.9 745.8,311.3 921.9,575 		"/>
		<polygon class="st12" points="783.5,367.7 669.1,425.5 634.5,373.6 714.5,264.3 		"/>
		<polygon class="st80" points="573.7,575.5 440,575.5 713.3,166 847,166 		"/>
		<polygon class="st11" points="716.4,166 579.6,567.1 847.3,166 		"/>
		<polyline class="st14" points="576.8,568.7 512.1,469.5 713.6,167.6 576.8,568.7 		"/>
		
			<linearGradient id="SVGID_32_" gradientUnits="userSpaceOnUse" x1="346.6292" y1="67.4717" x2="346.6292" y2="-244.1608" gradientTransform="matrix(1 0 0 1 148.9229 456.3055)">
			<stop  offset="0.257" style="stop-color:#C2C2C2"/>
			<stop  offset="0.9944" style="stop-color:#C2C2C2"/>
		</linearGradient>
		<path class="st81" d="M546.8,370.1c0,0-20.6-31.8-43.4-66.8c-0.7-1-1.4-2.1-2-3.1c-27.4-42.2-57.1-87.9-57.1-87.9v311.6
			L546.8,370.1z"/>
		<polygon class="st16" points="546.8,371.3 444.2,525 503.4,304.5 		"/>
		<polyline class="st17" points="547,371.3 492.3,285.8 492.3,452 547,371.3 		"/>
		<path class="st18" d="M444.2,166"/>
		<linearGradient id="SVGID_33_" gradientUnits="userSpaceOnUse" x1="495.6805" y1="322.7025" x2="495.6805" y2="165.9731">
			<stop  offset="0.257" style="stop-color:#C2C2C2"/>
			<stop  offset="0.9944" style="stop-color:#C2C2C2"/>
		</linearGradient>
		<polygon class="st82" points="547,166 547,322.7 444.4,166 		"/>
		<linearGradient id="SVGID_34_" gradientUnits="userSpaceOnUse" x1="444.2064" y1="244.3378" x2="546.8016" y2="244.3378">
			<stop  offset="0.257" style="stop-color:#C2C2C2"/>
			<stop  offset="0.9944" style="stop-color:#C2C2C2"/>
		</linearGradient>
		<polyline class="st83" points="546.8,322.7 444.2,166 507.7,166 546.8,322.7 		"/>
		<polyline class="st20" points="547,323.4 547,244.7 495.7,244.7 547,323 		"/>
	</g>
	<text transform="matrix(1 0 0 1 579.5566 396.9473)" class="st2"><tspan x="0" y="0" class="st84 st32 st85">PRIME </tspan><tspan x="0" y="175.3" class="st84 st32 st85">ONE</tspan></text>
</g>
<g id="Kael_-_Partner_Icon" class="st0">
	<rect id="background" x="317.5" y="12" class="st86" width="898.5" height="725"/>
	<g id="gm" class="st2">
		<path class="st87" d="M640.5,375.5l119.9-119.9l119.9,119.9L760.4,495.4L640.5,375.5z"/>
		<linearGradient id="SVGID_35_" gradientUnits="userSpaceOnUse" x1="425" y1="197.9216" x2="740.8418" y2="197.9216">
			<stop  offset="0" style="stop-color:#FF75D6"/>
			<stop  offset="0.6816" style="stop-color:#B05AF7"/>
		</linearGradient>
		<path class="st88" d="M604.6,355.8l136.2-136.2V40L425,355.8L604.6,355.8z"/>
		<linearGradient id="SVGID_36_" gradientUnits="userSpaceOnUse" x1="425" y1="553.0797" x2="740.8418" y2="553.0797">
			<stop  offset="0" style="stop-color:#FF75D6"/>
			<stop  offset="0.6816" style="stop-color:#B05AF7"/>
		</linearGradient>
		<path class="st89" d="M740.8,531.4L604.6,395.2H425L740.8,711V531.4z"/>
		<linearGradient id="SVGID_37_" gradientUnits="userSpaceOnUse" x1="780.1582" y1="553.0798" x2="1096" y2="553.0798">
			<stop  offset="0" style="stop-color:#FF75D6"/>
			<stop  offset="0.6816" style="stop-color:#B05AF7"/>
		</linearGradient>
		<path class="st90" d="M916.4,395.2L780.2,531.4V711L1096,395.2H916.4z"/>
		<linearGradient id="SVGID_38_" gradientUnits="userSpaceOnUse" x1="780.1582" y1="197.9215" x2="1096" y2="197.9215">
			<stop  offset="0" style="stop-color:#FF75D6"/>
			<stop  offset="0.6816" style="stop-color:#B05AF7"/>
		</linearGradient>
		<path class="st91" d="M780.2,219.6l136.2,136.2H1096L780.2,40V219.6z"/>
	</g>
	<g id="Kael_Logotype" class="st92">
		<path class="st93" d="M776.4,365l38.1,59.9H782c0,0-9.8-15.4-21.9-34.4L776.4,365z"/>
		<polygon class="st93" points="740.6,425 712.3,425 770.2,333.8 798.6,333.8 		"/>
		<path class="st93" d="M734.9,379.2c0,0-4.4-7.1-9.2-14.9c-0.1-0.2-0.3-0.5-0.4-0.7c-5.8-9.4-12.1-19.6-12.1-19.6v69.4L734.9,379.2
			z"/>
		<polygon class="st93" points="734.9,333.8 734.9,368.7 713.2,333.8 		"/>
	</g>
	<g id="flash_light" class="st94">
		<polygon class="st95" points="622,411 714,503 660,628 567,537 		"/>
		<polygon class="st95" points="641,375 760,255 797,291 730,464 		"/>
		<polygon class="st95" points="680,280 741,137 741,219 		"/>
		<polygon class="st95" points="816,255 780,219 781,41 874,137 		"/>
	</g>
	<linearGradient id="SVGID_39_" gradientUnits="userSpaceOnUse" x1="260.803" y1="333.947" x2="96.197" y2="619.053">
		<stop  offset="0" style="stop-color:#FF75D6"/>
		<stop  offset="0.6816" style="stop-color:#B05AF7"/>
	</linearGradient>
	<rect x="58" y="356" class="st96" width="241" height="241"/>
</g>
<g id="colors_test" class="st0">
	<rect x="97" y="103" class="st97" width="207" height="207"/>
</g>
</svg>
