<?xml version="1.0" encoding="utf-8"?>
<!-- Generator: Adobe Illustrator 23.0.2, SVG Export Plug-In . SVG Version: 6.00 Build 0)  -->
<svg version="1.1" id="Camada_1" xmlns="http://www.w3.org/2000/svg" xmlns:xlink="http://www.w3.org/1999/xlink" x="0px" y="0px"
	 viewBox="0 0 912 912" style="enable-background:new 0 0 912 912;" xml:space="preserve">
<style type="text/css">
	.st0{fill:url(#SVGID_1_);}
	.st1{fill:url(#SVGID_2_);}
	.st2{fill:none;}
	.st3{display:none;fill:#E5E5E5;}
	.st4{font-family:'Righteous-Regular';}
	.st5{font-size:119.6094px;}
	.st6{opacity:0.15;}
	.st7{fill:#EB608D;}
	.st8{fill:#EB798D;}
	.st9{display:none;fill:#FFB464;}
	.st10{fill:#9B024E;}
	.st11{fill:#B20453;}
	.st12{fill:#E80054;}
	.st13{fill:#FF7186;}
	.st14{fill:#CC0053;}
	.st15{display:none;}
	.st16{display:inline;fill:#FCC695;}
	.st17{fill:url(#SVGID_3_);}
	.st18{fill:url(#SVGID_4_);}
	.st19{fill:#E5E5E5;}
</style>
<linearGradient id="SVGID_1_" gradientUnits="userSpaceOnUse" x1="489.0664" y1="858.1328" x2="489.0664" y2="134.8331" gradientTransform="matrix(0.9986 5.337639e-02 -5.337639e-02 0.9986 24.9615 -23.6363)">
	<stop  offset="5.617963e-03" style="stop-color:#EB9CA9"/>
	<stop  offset="0.1256" style="stop-color:#C77BA0"/>
	<stop  offset="0.3359" style="stop-color:#8E4692"/>
	<stop  offset="0.5164" style="stop-color:#652088"/>
	<stop  offset="0.6579" style="stop-color:#4B0981"/>
	<stop  offset="0.743" style="stop-color:#42007F"/>
</linearGradient>
<path class="st0" d="M791.7,207.6c-16.1-0.8-28.1-13.6-27.2-29.1c0.9-15.5-11.1-28.2-27.2-29.1l-460.5-23.6
	c-16.1-0.8-29.5,10.7-30.3,26.1s-14.2,26.9-30.3,26.1c-16.1-0.8-29.5,10.7-30.3,26.1l-31,555.6c-0.9,15.5,11.1,28.2,27.2,29.1
	s28.1,13.6,27.2,29.1s11.1,28.2,27.2,29.1L697,870.6c16.1,0.8,29.5-10.7,30.3-26.1c0.9-15.5,14.2-26.9,30.3-26.1
	c16.1,0.8,29.5-10.7,30.3-26.1l31-555.6C819.8,221.2,807.8,208.4,791.7,207.6z"/>
<linearGradient id="SVGID_2_" gradientUnits="userSpaceOnUse" x1="647.4827" y1="857.626" x2="647.4827" y2="134.8331" gradientTransform="matrix(0.9986 5.337639e-02 -5.337639e-02 0.9986 24.9615 -23.6363)">
	<stop  offset="5.617963e-03" style="stop-color:#EB798D"/>
	<stop  offset="0.1256" style="stop-color:#C75F8A"/>
	<stop  offset="0.3359" style="stop-color:#8E3785"/>
	<stop  offset="0.5164" style="stop-color:#651982"/>
	<stop  offset="0.6579" style="stop-color:#4B0780"/>
	<stop  offset="0.743" style="stop-color:#42007F"/>
</linearGradient>
<path class="st1" d="M818.9,236.7l-31,555.6c-0.9,15.5-14.2,26.9-30.3,26.1c-16.1-0.8-29.5,10.7-30.3,26.1
	c-0.9,15.5-14.2,26.9-30.3,26.1l-230.3-11.8l40.2-721.2l230.3,11.8c16.1,0.8,28.1,13.6,27.2,29.1c-0.9,15.5,11.1,28.2,27.2,29.1
	C807.8,208.4,819.8,221.2,818.9,236.7z"/>
<polygon class="st2" points="709.1,666.7 275,644.5 281.8,523.5 715.8,545.8 "/>
<text transform="matrix(1.0414 5.337355e-02 -5.566897e-02 0.9984 276.8936 610.8123)" class="st3 st4 st5">VANITY</text>
<path class="st6" d="M818.9,236.7l-31,555.6c-0.9,15.5-14.2,26.9-30.3,26.1c-16.1-0.8-29.5,10.7-30.3,26.1
	c-0.9,15.5-14.2,26.9-30.3,26.1l-230.3-11.8l40.2-721.2l230.3,11.8c16.1,0.8,28.1,13.6,27.2,29.1c-0.9,15.5,11.1,28.2,27.2,29.1
	C807.8,208.4,819.8,221.2,818.9,236.7z"/>
<ellipse class="st7" cx="589.7" cy="724.9" rx="28.8" ry="27.6"/>
<path class="st8" d="M503.3,720.5c-0.9,15.5-14.2,26.9-30.3,26.1l-115.1-5.9c-16.1-0.8-28.1-13.6-27.2-29.1s14.2-26.9,30.3-26.1
	l115.1,5.9C492.2,692.2,504.2,705,503.3,720.5z"/>
<path class="st7" d="M503.3,720.5c-0.9,15.5-14.2,26.9-30.3,26.1l3.1-55.2C492.2,692.2,504.2,705,503.3,720.5z"/>
<g>
	<path class="st9" d="M567.1,125.9C389.9,116.8,238.5,247.2,229,417.2c-7,125.5,65.3,237.4,175,291.1l260.4,13.3
		c115-42.1,199.4-146,206.4-271.5C880.4,280.1,744.4,135,567.1,125.9L567.1,125.9z"/>
	<path class="st10" d="M315.3,321.5l88.6,142.9c24.3,11.9,51.4,19.3,80.3,21.2l9-162l-179-9.2C313.6,316.8,314,319.3,315.3,321.5z"
		/>
	<path class="st11" d="M502.1,72.6L315.9,311c-1.2,1.5-1.9,3.3-2,5.2l179.1,9.2l14.3-256.1l-0.1,0C505.3,69.7,503.5,70.9,502.1,72.6
		L502.1,72.6z"/>
	<path class="st12" d="M490.6,485.9c28.9,1.1,56.7-3.6,82.2-12.9l103.9-133c1.6-2,2.2-4.5,1.9-6.9l-178.9-9.2L490.6,485.9z"/>
	<path class="st13" d="M513.8,69.5L513.8,69.5l-14.3,256.1l179.1,9.2c0.1-1.8-0.4-3.7-1.4-5.4l-158.7-256
		C517.4,71.6,515.7,70.3,513.8,69.5L513.8,69.5z"/>
	<path class="st14" d="M496.4,323.8l-9,162.1c14.9,0.8,29.5,0,43.7-2.1l67.6-144.8c1.4-3.1,2.1-6.4,2-9.7L496.4,323.8L496.4,323.8z"
		/>
	<path class="st12" d="M496.3,325.5l104.4,5.4c0.2-2.7-0.2-5.5-1.1-8.2L513.8,69.5c-1-0.4-2.1-0.6-3.2-0.7L496.3,325.5z"/>
	<path class="st11" d="M392,318.4c-0.5,3.3-0.2,6.7,0.9,9.9l51.1,150.9c13.9,3.6,28.3,5.8,43.2,6.6l9-162.1L392,318.4z"/>
	<path class="st14" d="M393.8,312.1c-1.2,2.5-1.9,5.3-2,8l104.4,5.4l14.3-256.6c-1.1-0.1-2.2,0.1-3.3,0.4L393.8,312.1z"/>
	<g class="st15">
		<path class="st16" d="M687.2,154.9c-3.3,13.2-3.2,29,5.1,45.7c22.4,44.7,125.8,210.4,125.8,210.4s19.8,30,53,33.5
			C875.8,318,800.1,206,687.2,154.9L687.2,154.9z"/>
		<path class="st16" d="M229.4,411.5c33.4,0,56.4-27.9,56.4-27.9s121.2-154.2,148.4-196.3c10.2-15.7,11.9-31.4,10.2-44.9
			C326.6,181.8,238.8,285.3,229.4,411.5z"/>
	</g>
</g>
<linearGradient id="SVGID_3_" gradientUnits="userSpaceOnUse" x1="406.0597" y1="832.0962" x2="406.0597" y2="109.8987">
	<stop  offset="0.257" style="stop-color:#42007F"/>
	<stop  offset="0.3421" style="stop-color:#4B0981"/>
	<stop  offset="0.4836" style="stop-color:#652088"/>
	<stop  offset="0.6641" style="stop-color:#8E4692"/>
	<stop  offset="0.8744" style="stop-color:#C77BA0"/>
	<stop  offset="0.9944" style="stop-color:#EB9CA9"/>
</linearGradient>
<path class="st17" d="M694.3,165.2c-16.1,0-28.8-12.2-28.8-27.6s-12.7-27.6-28.8-27.6H175.5c-16.1,0-28.8,12.2-28.8,27.6
	s-12.7,27.6-28.8,27.6S89,177.3,89,192.8v556.4c0,15.5,12.7,27.6,28.8,27.6s28.8,12.2,28.8,27.6c0,15.5,12.7,27.6,28.8,27.6h461.2
	c16.1,0,28.8-12.2,28.8-27.6c0-15.5,12.7-27.6,28.8-27.6s28.8-12.2,28.8-27.6V192.8C723.1,177.3,710.4,165.2,694.3,165.2z"/>
<linearGradient id="SVGID_4_" gradientUnits="userSpaceOnUse" x1="564.5895" y1="832.0962" x2="564.5895" y2="109.8987">
	<stop  offset="0.257" style="stop-color:#42007F"/>
	<stop  offset="0.3421" style="stop-color:#4B0780"/>
	<stop  offset="0.4836" style="stop-color:#651982"/>
	<stop  offset="0.6641" style="stop-color:#8E3785"/>
	<stop  offset="0.8744" style="stop-color:#C75F8A"/>
	<stop  offset="0.9944" style="stop-color:#EB798D"/>
</linearGradient>
<path class="st18" d="M723.1,192.8v556.4c0,15.5-12.7,27.6-28.8,27.6s-28.8,12.2-28.8,27.6c0,15.5-12.7,27.6-28.8,27.6H406.1V109.9
	h230.6c16.1,0,28.8,12.2,28.8,27.6s12.7,27.6,28.8,27.6S723.1,177.3,723.1,192.8z"/>
<g>
	<path class="st19" d="M277.5,510.4l-28.7,83.7h-17.5l-28.6-83.7h19.9l17.4,55.9l17.5-55.9H277.5z"/>
	<path class="st19" d="M352.9,594.2h-17.5v-16.8h-35v16.8H283v-50.2c0-4.6,0.9-9,2.7-13.1c1.8-4.1,4.3-7.6,7.5-10.7
		c3.1-3,6.8-5.4,11.1-7.2c4.2-1.8,8.8-2.6,13.6-2.6c4.8,0,9.4,0.9,13.6,2.6c4.2,1.8,7.9,4.1,11.1,7.2c3.2,3,5.7,6.6,7.5,10.7
		c1.8,4.1,2.7,8.4,2.7,13.1V594.2z M335.4,560.7v-16.8c0-2.3-0.5-4.5-1.4-6.5s-2.2-3.8-3.7-5.3c-1.6-1.5-3.4-2.7-5.6-3.6
		s-4.4-1.3-6.8-1.3c-2.4,0-4.7,0.4-6.8,1.3s-4,2.1-5.6,3.6c-1.6,1.5-2.8,3.3-3.7,5.3s-1.4,4.2-1.4,6.5v16.8H335.4z"/>
	<path class="st19" d="M437.9,594.2h-18.7L385.5,539v55.1h-17.5v-83.7h18.7l33.7,55.2v-55.2h17.5V594.2z"/>
	<path class="st19" d="M471.6,594.2h-17.5v-83.7h17.5V594.2z"/>
	<path class="st19" d="M524.5,594.2H507v-67h-26.3v-16.8h69.9v16.8h-26.2V594.2z"/>
	<path class="st19" d="M599.2,594.2h-17.4v-26.2c-3.9-0.9-7.4-2.4-10.6-4.5c-3.2-2.1-6-4.5-8.3-7.4s-4.1-6-5.4-9.5
		c-1.3-3.5-1.9-7.2-1.9-11v-25.1H573v25.1c0,2.3,0.5,4.5,1.4,6.5c0.9,2,2.2,3.8,3.7,5.3c1.6,1.5,3.4,2.7,5.6,3.6s4.4,1.3,6.8,1.3
		s4.7-0.4,6.8-1.3s4-2.1,5.6-3.6c1.6-1.5,2.8-3.3,3.7-5.3c0.9-2,1.4-4.2,1.4-6.5v-25.1h17.4v25.1c0,3.9-0.6,7.5-1.9,11
		c-1.3,3.5-3.1,6.7-5.4,9.5s-5.1,5.3-8.3,7.4s-6.7,3.6-10.6,4.5V594.2z"/>
</g>
<path class="st6" d="M723.1,192.8v556.4c0,15.5-12.7,27.6-28.8,27.6s-28.8,12.2-28.8,27.6c0,15.5-12.7,27.6-28.8,27.6H406.1V109.9
	h230.6c16.1,0,28.8,12.2,28.8,27.6s12.7,27.6,28.8,27.6S723.1,177.3,723.1,192.8z"/>
<ellipse class="st7" cx="521.4" cy="692.1" rx="28.8" ry="27.6"/>
<path class="st8" d="M434.9,692.1c0,15.5-12.7,27.6-28.8,27.6H290.8c-16.1,0-28.8-12.2-28.8-27.6c0-15.5,12.7-27.6,28.8-27.6h115.3
	C422.2,664.4,434.9,676.6,434.9,692.1z"/>
<path class="st7" d="M434.9,692.1c0,15.5-12.7,27.6-28.8,27.6v-55.3C422.2,664.4,434.9,676.6,434.9,692.1z"/>
<g>
	<path class="st9" d="M465.5,95.1c-177.5,0-321.4,138-321.4,308.1c0,125.7,78.5,233.7,191,281.7h260.8c112.5-47.9,191-156,191-281.7
		C786.9,233,643,95.1,465.5,95.1L465.5,95.1z"/>
	<path class="st10" d="M224.9,303.3l96.4,138.1c24.9,10.6,52.4,16.7,81.4,17.1V296.3H223.4C223,298.7,223.5,301.2,224.9,303.3z"/>
	<path class="st11" d="M397.6,45.2L224.9,292.7c-1.1,1.6-1.7,3.4-1.7,5.3h179.4V41.5h-0.1C400.7,42.2,398.9,43.4,397.6,45.2
		L397.6,45.2z"/>
	<path class="st12" d="M409.1,458.5c28.9-0.4,56.4-6.5,81.3-17.1l96.4-138.1c1.5-2.1,2-4.6,1.5-7H409.1V458.5z"/>
	<path class="st13" d="M409.1,41.5L409.1,41.5l0,256.5h179.4c0-1.8-0.6-3.7-1.7-5.3L414.1,45.2C412.8,43.4,411.1,42.2,409.1,41.5
		L409.1,41.5z"/>
	<path class="st14" d="M405.9,296.3v162.3c14.9,0,29.5-1.5,43.5-4.4l59.5-148.1c1.3-3.2,1.8-6.5,1.5-9.8L405.9,296.3L405.9,296.3z"
		/>
	<path class="st12" d="M405.9,298h104.6c0-2.7-0.5-5.5-1.6-8.1L409.1,41.5c-1.1-0.3-2.2-0.5-3.3-0.5L405.9,298z"/>
	<path class="st11" d="M301.4,296.3c-0.3,3.3,0.2,6.7,1.5,9.8l59.5,148.1c14,2.9,28.6,4.4,43.5,4.4V296.3H301.4z"/>
	<path class="st14" d="M302.8,289.9c-1,2.6-1.6,5.3-1.6,8.1h104.6V41c-1.1,0-2.2,0.2-3.3,0.5L302.8,289.9z"/>
	<g class="st15">
		<path class="st16" d="M587.1,117.9c-2.5,13.4-1.6,29.1,7.7,45.3C619.6,206.7,732,366.9,732,366.9s21.5,29,54.8,30.7
			C784.5,271.1,702.6,163.2,587.1,117.9L587.1,117.9z"/>
		<path class="st16" d="M144.2,397.6c33.4-1.8,54.8-30.7,54.8-30.7s112.4-160.2,137.3-203.6c9.3-16.2,10.2-32,7.7-45.3
			C228.5,163.2,146.6,271.1,144.2,397.6z"/>
	</g>
</g>
</svg>
